<svg xmlns="http://www.w3.org/2000/svg" viewBox="0 0 960 680" font-family="'Segoe UI', system-ui, -apple-system, sans-serif">
  <defs>
    <!-- Background radial glow -->
    <radialGradient id="bgGlow" cx="50%" cy="45%" r="55%">
      <stop offset="0%" stop-color="#1e1b4b" stop-opacity="0.6"/>
      <stop offset="50%" stop-color="#0f172a" stop-opacity="0.9"/>
      <stop offset="100%" stop-color="#0f172a"/>
    </radialGradient>

    <!-- Node glow filters -->
    <filter id="glowGreen" x="-100%" y="-100%" width="300%" height="300%">
      <feGaussianBlur in="SourceGraphic" stdDeviation="3" result="blur"/>
      <feMerge><feMergeNode in="blur"/><feMergeNode in="SourceGraphic"/></feMerge>
    </filter>
    <filter id="glowCyan" x="-100%" y="-100%" width="300%" height="300%">
      <feGaussianBlur in="SourceGraphic" stdDeviation="4" result="blur"/>
      <feMerge><feMergeNode in="blur"/><feMergeNode in="SourceGraphic"/></feMerge>
    </filter>
    <filter id="glowIndigo" x="-100%" y="-100%" width="300%" height="300%">
      <feGaussianBlur in="SourceGraphic" stdDeviation="5" result="blur"/>
      <feMerge><feMergeNode in="blur"/><feMergeNode in="SourceGraphic"/></feMerge>
    </filter>
    <filter id="glowPurple" x="-100%" y="-100%" width="300%" height="300%">
      <feGaussianBlur in="SourceGraphic" stdDeviation="8" result="blur"/>
      <feMerge><feMergeNode in="blur"/><feMergeNode in="SourceGraphic"/></feMerge>
    </filter>
    <filter id="softShadow" x="-4%" y="-4%" width="108%" height="116%">
      <feDropShadow dx="0" dy="2" stdDeviation="4" flood-color="#000" flood-opacity="0.2"/>
    </filter>

    <!-- Pathway markers -->
    <marker id="arrowUp" viewBox="0 0 10 10" refX="5" refY="10" markerWidth="8" markerHeight="8" orient="auto">
      <path d="M 0 10 L 5 0 L 10 10 z" fill="#a855f7" opacity="0.7"/>
    </marker>
    <marker id="arrowDown" viewBox="0 0 10 10" refX="5" refY="0" markerWidth="8" markerHeight="8" orient="auto">
      <path d="M 0 0 L 5 10 L 10 0 z" fill="#10b981" opacity="0.7"/>
    </marker>
  </defs>

  <!-- Background -->
  <rect width="960" height="680" fill="#0f172a"/>
  <rect width="960" height="680" fill="url(#bgGlow)"/>

  <!-- Title -->
  <text x="480" y="36" text-anchor="middle" fill="#e2e8f0" font-size="20" font-weight="700">Hierarchical Temporal Memory Graph</text>
  <text x="480" y="56" text-anchor="middle" fill="#94a3b8" font-size="12">Four levels of cognitive memory — from raw facts to strategic insights</text>

  <!-- ════════════════════════════════════════════════════════════════════ -->
  <!-- L4: ABSTRACT — Top, large glowing purple nodes                     -->
  <!-- ════════════════════════════════════════════════════════════════════ -->

  <g filter="url(#glowPurple)">
    <circle cx="380" cy="120" r="14" fill="#a855f7" opacity="0.9">
      <animate attributeName="r" values="14;16;14" dur="4s" repeatCount="indefinite"/>
    </circle>
    <circle cx="500" cy="105" r="12" fill="#c084fc" opacity="0.85">
      <animate attributeName="r" values="12;14;12" dur="3.5s" repeatCount="indefinite"/>
    </circle>
    <circle cx="600" cy="125" r="13" fill="#a855f7" opacity="0.9">
      <animate attributeName="r" values="13;15;13" dur="4.2s" repeatCount="indefinite"/>
    </circle>
  </g>

  <!-- L4 connections -->
  <line x1="394" y1="120" x2="488" y2="107" stroke="#a855f7" stroke-width="1.2" opacity="0.4"/>
  <line x1="512" y1="107" x2="587" y2="123" stroke="#a855f7" stroke-width="1.2" opacity="0.4"/>
  <line x1="393" y1="125" x2="588" y2="130" stroke="#c084fc" stroke-width="0.8" opacity="0.2"/>

  <!-- L4 Label -->
  <rect x="340" y="78" width="120" height="20" rx="10" fill="#7c3aed" opacity="0.85"/>
  <text x="400" y="92" text-anchor="middle" fill="white" font-size="9" font-weight="700">L4  ABSTRACT</text>
  <text x="490" y="148" text-anchor="middle" fill="#c4b5fd" font-size="10" font-weight="500">Strategic Insights</text>
  <text x="490" y="163" text-anchor="middle" fill="#94a3b8" font-size="8">Dream-consolidated patterns &amp; trajectories</text>

  <!-- Connecting lines L4 → L3 -->
  <line x1="380" y1="134" x2="330" y2="230" stroke="#a855f7" stroke-width="1" opacity="0.25" stroke-dasharray="4,3"/>
  <line x1="500" y1="117" x2="460" y2="225" stroke="#a855f7" stroke-width="1" opacity="0.25" stroke-dasharray="4,3"/>
  <line x1="600" y1="138" x2="620" y2="228" stroke="#a855f7" stroke-width="1" opacity="0.25" stroke-dasharray="4,3"/>

  <!-- SUMMARIZES label on connections -->
  <text x="410" y="185" text-anchor="middle" fill="#a855f7" font-size="7" opacity="0.6" transform="rotate(-35 410 185)">SUMMARIZES</text>

  <!-- ════════════════════════════════════════════════════════════════════ -->
  <!-- L3: EPISODE — Upper-middle, indigo nodes with orbiting fragments   -->
  <!-- ════════════════════════════════════════════════════════════════════ -->

  <g filter="url(#glowIndigo)">
    <!-- Episode 1 cluster -->
    <circle cx="310" cy="245" r="9" fill="#6366f1" opacity="0.85"/>
    <circle cx="295" cy="232" r="3" fill="#818cf8" opacity="0.6"/>
    <circle cx="325" cy="235" r="3" fill="#818cf8" opacity="0.6"/>
    <circle cx="300" cy="260" r="3" fill="#818cf8" opacity="0.6"/>
    <line x1="295" y1="232" x2="310" y2="245" stroke="#818cf8" stroke-width="0.6" opacity="0.4"/>
    <line x1="325" y1="235" x2="310" y2="245" stroke="#818cf8" stroke-width="0.6" opacity="0.4"/>
    <line x1="300" y1="260" x2="310" y2="245" stroke="#818cf8" stroke-width="0.6" opacity="0.4"/>

    <!-- Episode 2 cluster -->
    <circle cx="460" cy="238" r="10" fill="#6366f1" opacity="0.85"/>
    <circle cx="442" cy="225" r="3" fill="#818cf8" opacity="0.6"/>
    <circle cx="478" cy="228" r="3" fill="#818cf8" opacity="0.6"/>
    <circle cx="448" cy="255" r="3" fill="#818cf8" opacity="0.6"/>
    <circle cx="472" cy="252" r="3" fill="#818cf8" opacity="0.6"/>
    <line x1="442" y1="225" x2="460" y2="238" stroke="#818cf8" stroke-width="0.6" opacity="0.4"/>
    <line x1="478" y1="228" x2="460" y2="238" stroke="#818cf8" stroke-width="0.6" opacity="0.4"/>
    <line x1="448" y1="255" x2="460" y2="238" stroke="#818cf8" stroke-width="0.6" opacity="0.4"/>
    <line x1="472" y1="252" x2="460" y2="238" stroke="#818cf8" stroke-width="0.6" opacity="0.4"/>

    <!-- Episode 3 cluster -->
    <circle cx="620" cy="242" r="9" fill="#6366f1" opacity="0.85"/>
    <circle cx="605" cy="230" r="3" fill="#818cf8" opacity="0.6"/>
    <circle cx="638" cy="233" r="3" fill="#818cf8" opacity="0.6"/>
    <circle cx="615" cy="258" r="3" fill="#818cf8" opacity="0.6"/>
    <line x1="605" y1="230" x2="620" y2="242" stroke="#818cf8" stroke-width="0.6" opacity="0.4"/>
    <line x1="638" y1="233" x2="620" y2="242" stroke="#818cf8" stroke-width="0.6" opacity="0.4"/>
    <line x1="615" y1="258" x2="620" y2="242" stroke="#818cf8" stroke-width="0.6" opacity="0.4"/>
  </g>

  <!-- L3 inter-episode connections -->
  <line x1="319" y1="243" x2="450" y2="238" stroke="#6366f1" stroke-width="0.8" opacity="0.3"/>
  <line x1="470" y1="240" x2="611" y2="242" stroke="#6366f1" stroke-width="0.8" opacity="0.3"/>

  <!-- L3 Label -->
  <rect x="340" y="210" width="120" height="20" rx="10" fill="#4f46e5" opacity="0.85"/>
  <text x="400" y="224" text-anchor="middle" fill="white" font-size="9" font-weight="700">L3  EPISODE</text>
  <text x="490" y="278" text-anchor="middle" fill="#a5b4fc" font-size="10" font-weight="500">Temporal Event Clusters</text>
  <text x="490" y="293" text-anchor="middle" fill="#94a3b8" font-size="8">7-signal hybrid linker groups related fragments</text>

  <!-- Connecting lines L3 → L2 -->
  <line x1="310" y1="254" x2="280" y2="360" stroke="#6366f1" stroke-width="0.8" opacity="0.2" stroke-dasharray="4,3"/>
  <line x1="460" y1="248" x2="420" y2="355" stroke="#6366f1" stroke-width="0.8" opacity="0.2" stroke-dasharray="4,3"/>
  <line x1="460" y1="248" x2="530" y2="358" stroke="#6366f1" stroke-width="0.8" opacity="0.2" stroke-dasharray="4,3"/>
  <line x1="620" y1="251" x2="650" y2="355" stroke="#6366f1" stroke-width="0.8" opacity="0.2" stroke-dasharray="4,3"/>

  <!-- BELONGS_TO label -->
  <text x="355" y="315" text-anchor="middle" fill="#6366f1" font-size="7" opacity="0.5" transform="rotate(-30 355 315)">BELONGS_TO</text>

  <!-- ════════════════════════════════════════════════════════════════════ -->
  <!-- L2: ENTITY_STATE — Lower-middle, cyan double-ring nodes           -->
  <!-- ════════════════════════════════════════════════════════════════════ -->

  <g filter="url(#glowCyan)">
    <!-- Entity state nodes with double-ring (bitemporal indicator) -->
    <circle cx="260" cy="375" r="7" fill="#0ea5e9" opacity="0.8"/>
    <circle cx="260" cy="375" r="10" fill="none" stroke="#0ea5e9" stroke-width="0.8" opacity="0.4"/>

    <circle cx="350" cy="368" r="6" fill="#0ea5e9" opacity="0.8"/>
    <circle cx="350" cy="368" r="9" fill="none" stroke="#0ea5e9" stroke-width="0.8" opacity="0.4"/>

    <circle cx="420" cy="372" r="7" fill="#38bdf8" opacity="0.75"/>
    <circle cx="420" cy="372" r="10" fill="none" stroke="#38bdf8" stroke-width="0.8" opacity="0.4"/>

    <circle cx="530" cy="370" r="6" fill="#0ea5e9" opacity="0.8"/>
    <circle cx="530" cy="370" r="9" fill="none" stroke="#0ea5e9" stroke-width="0.8" opacity="0.4"/>

    <circle cx="620" cy="365" r="7" fill="#38bdf8" opacity="0.75"/>
    <circle cx="620" cy="365" r="10" fill="none" stroke="#38bdf8" stroke-width="0.8" opacity="0.4"/>

    <circle cx="690" cy="375" r="6" fill="#0ea5e9" opacity="0.8"/>
    <circle cx="690" cy="375" r="9" fill="none" stroke="#0ea5e9" stroke-width="0.8" opacity="0.4"/>
  </g>

  <!-- L2 connections & SUPERSEDES arrows -->
  <line x1="267" y1="373" x2="344" y2="369" stroke="#0ea5e9" stroke-width="0.8" opacity="0.35"/>
  <line x1="356" y1="368" x2="414" y2="371" stroke="#0ea5e9" stroke-width="0.8" opacity="0.35"/>
  <line x1="427" y1="372" x2="524" y2="370" stroke="#0ea5e9" stroke-width="0.8" opacity="0.35"/>
  <line x1="536" y1="370" x2="614" y2="366" stroke="#0ea5e9" stroke-width="0.8" opacity="0.35"/>
  <line x1="627" y1="366" x2="684" y2="374" stroke="#0ea5e9" stroke-width="0.8" opacity="0.35"/>
  <!-- Supersedes cross-link -->
  <path d="M 350 380 Q 385 395 420 382" stroke="#f97316" stroke-width="1" opacity="0.5" fill="none" stroke-dasharray="3,2"/>
  <text x="385" y="398" text-anchor="middle" fill="#f97316" font-size="6" opacity="0.6">SUPERSEDES</text>

  <!-- L2 Label -->
  <rect x="325" y="340" width="150" height="20" rx="10" fill="#0284c7" opacity="0.85"/>
  <text x="400" y="354" text-anchor="middle" fill="white" font-size="9" font-weight="700">L2  ENTITY_STATE</text>
  <text x="490" y="405" text-anchor="middle" fill="#7dd3fc" font-size="10" font-weight="500">Tracked Entity Attributes</text>
  <text x="490" y="420" text-anchor="middle" fill="#94a3b8" font-size="8">Bitemporal versioning: observed_at + ingested_at</text>

  <!-- Connecting lines L2 → L1 -->
  <line x1="260" y1="385" x2="240" y2="470" stroke="#0ea5e9" stroke-width="0.6" opacity="0.2" stroke-dasharray="3,3"/>
  <line x1="350" y1="377" x2="320" y2="468" stroke="#0ea5e9" stroke-width="0.6" opacity="0.2" stroke-dasharray="3,3"/>
  <line x1="420" y1="382" x2="400" y2="465" stroke="#0ea5e9" stroke-width="0.6" opacity="0.2" stroke-dasharray="3,3"/>
  <line x1="530" y1="379" x2="510" y2="468" stroke="#0ea5e9" stroke-width="0.6" opacity="0.2" stroke-dasharray="3,3"/>
  <line x1="620" y1="375" x2="600" y2="470" stroke="#0ea5e9" stroke-width="0.6" opacity="0.2" stroke-dasharray="3,3"/>
  <line x1="690" y1="384" x2="680" y2="472" stroke="#0ea5e9" stroke-width="0.6" opacity="0.2" stroke-dasharray="3,3"/>

  <!-- ════════════════════════════════════════════════════════════════════ -->
  <!-- L1: ATOMIC — Bottom, dense green node cluster                      -->
  <!-- ════════════════════════════════════════════════════════════════════ -->

  <g filter="url(#glowGreen)">
    <!-- Dense field of small atomic fact nodes -->
    <circle cx="220" cy="480" r="3.5" fill="#10b981" opacity="0.7"/>
    <circle cx="245" cy="475" r="3" fill="#10b981" opacity="0.65"/>
    <circle cx="265" cy="485" r="3.5" fill="#6ee7b7" opacity="0.6"/>
    <circle cx="290" cy="478" r="3" fill="#10b981" opacity="0.7"/>
    <circle cx="310" cy="488" r="3.5" fill="#10b981" opacity="0.65"/>
    <circle cx="335" cy="475" r="3" fill="#6ee7b7" opacity="0.6"/>
    <circle cx="355" cy="483" r="3.5" fill="#10b981" opacity="0.7"/>
    <circle cx="378" cy="477" r="3" fill="#10b981" opacity="0.65"/>
    <circle cx="400" cy="486" r="3.5" fill="#6ee7b7" opacity="0.6"/>
    <circle cx="425" cy="480" r="3" fill="#10b981" opacity="0.7"/>
    <circle cx="448" cy="473" r="3.5" fill="#10b981" opacity="0.65"/>
    <circle cx="470" cy="485" r="3" fill="#6ee7b7" opacity="0.6"/>
    <circle cx="495" cy="478" r="3.5" fill="#10b981" opacity="0.7"/>
    <circle cx="518" cy="488" r="3" fill="#10b981" opacity="0.65"/>
    <circle cx="540" cy="476" r="3.5" fill="#6ee7b7" opacity="0.6"/>
    <circle cx="562" cy="484" r="3" fill="#10b981" opacity="0.7"/>
    <circle cx="585" cy="478" r="3.5" fill="#10b981" opacity="0.65"/>
    <circle cx="608" cy="486" r="3" fill="#6ee7b7" opacity="0.6"/>
    <circle cx="630" cy="475" r="3.5" fill="#10b981" opacity="0.7"/>
    <circle cx="655" cy="483" r="3" fill="#10b981" opacity="0.65"/>
    <circle cx="678" cy="478" r="3.5" fill="#6ee7b7" opacity="0.6"/>
    <circle cx="700" cy="486" r="3" fill="#10b981" opacity="0.7"/>
    <circle cx="722" cy="480" r="3.5" fill="#10b981" opacity="0.65"/>

    <!-- Second row -->
    <circle cx="235" cy="500" r="3" fill="#10b981" opacity="0.55"/>
    <circle cx="260" cy="505" r="3.5" fill="#10b981" opacity="0.6"/>
    <circle cx="285" cy="498" r="3" fill="#6ee7b7" opacity="0.5"/>
    <circle cx="310" cy="508" r="3.5" fill="#10b981" opacity="0.55"/>
    <circle cx="340" cy="502" r="3" fill="#10b981" opacity="0.6"/>
    <circle cx="365" cy="508" r="3.5" fill="#6ee7b7" opacity="0.5"/>
    <circle cx="390" cy="500" r="3" fill="#10b981" opacity="0.55"/>
    <circle cx="418" cy="505" r="3.5" fill="#10b981" opacity="0.6"/>
    <circle cx="445" cy="498" r="3" fill="#6ee7b7" opacity="0.5"/>
    <circle cx="475" cy="503" r="3.5" fill="#10b981" opacity="0.55"/>
    <circle cx="505" cy="508" r="3" fill="#10b981" opacity="0.6"/>
    <circle cx="535" cy="500" r="3.5" fill="#6ee7b7" opacity="0.5"/>
    <circle cx="560" cy="505" r="3" fill="#10b981" opacity="0.55"/>
    <circle cx="590" cy="498" r="3.5" fill="#10b981" opacity="0.6"/>
    <circle cx="618" cy="505" r="3" fill="#6ee7b7" opacity="0.5"/>
    <circle cx="648" cy="500" r="3.5" fill="#10b981" opacity="0.55"/>
    <circle cx="675" cy="505" r="3" fill="#10b981" opacity="0.6"/>
    <circle cx="705" cy="498" r="3.5" fill="#6ee7b7" opacity="0.5"/>
  </g>

  <!-- L1 inter-node connections (light mesh) -->
  <g stroke="#10b981" stroke-width="0.4" opacity="0.2">
    <line x1="220" y1="480" x2="245" y2="475"/>
    <line x1="245" y1="475" x2="265" y2="485"/>
    <line x1="265" y1="485" x2="290" y2="478"/>
    <line x1="310" y1="488" x2="335" y2="475"/>
    <line x1="355" y1="483" x2="378" y2="477"/>
    <line x1="400" y1="486" x2="425" y2="480"/>
    <line x1="448" y1="473" x2="470" y2="485"/>
    <line x1="495" y1="478" x2="518" y2="488"/>
    <line x1="540" y1="476" x2="562" y2="484"/>
    <line x1="585" y1="478" x2="608" y2="486"/>
    <line x1="630" y1="475" x2="655" y2="483"/>
    <line x1="678" y1="478" x2="700" y2="486"/>
    <line x1="235" y1="500" x2="260" y2="505"/>
    <line x1="310" y1="508" x2="340" y2="502"/>
    <line x1="390" y1="500" x2="418" y2="505"/>
    <line x1="475" y1="503" x2="505" y2="508"/>
    <line x1="560" y1="505" x2="590" y2="498"/>
    <line x1="648" y1="500" x2="675" y2="505"/>
    <!-- Cross-row -->
    <line x1="245" y1="475" x2="235" y2="500"/>
    <line x1="355" y1="483" x2="365" y2="508"/>
    <line x1="470" y1="485" x2="475" y2="503"/>
    <line x1="585" y1="478" x2="590" y2="498"/>
    <line x1="700" y1="486" x2="705" y2="498"/>
  </g>

  <!-- L1 Label -->
  <rect x="350" y="455" width="120" height="20" rx="10" fill="#059669" opacity="0.85"/>
  <text x="410" y="469" text-anchor="middle" fill="white" font-size="9" font-weight="700">L1  ATOMIC</text>
  <text x="490" y="532" text-anchor="middle" fill="#6ee7b7" font-size="10" font-weight="500">Individual Facts &amp; Observations</text>
  <text x="490" y="547" text-anchor="middle" fill="#94a3b8" font-size="8">BM25 + SPLADE indexed, GLiNER entity-linked</text>

  <!-- ════════════════════════════════════════════════════════════════════ -->
  <!-- LEFT PATHWAY: Dream Consolidation (upward)                         -->
  <!-- ════════════════════════════════════════════════════════════════════ -->

  <path d="M 155 510 C 140 430, 135 350, 145 300 C 150 270, 160 240, 170 210 C 180 180, 195 150, 220 115"
        stroke="#a855f7" stroke-width="2.5" fill="none" opacity="0.5" stroke-dasharray="8,4"
        marker-end="url(#arrowUp)"/>

  <!-- Moon icon for dream -->
  <circle cx="130" cy="280" r="12" fill="none" stroke="#a855f7" stroke-width="1.5" opacity="0.5"/>
  <circle cx="125" cy="276" r="9" fill="#0f172a"/>
  <circle cx="140" cy="272" r="2" fill="#a855f7" opacity="0.4"/>
  <circle cx="135" cy="286" r="1.5" fill="#a855f7" opacity="0.3"/>

  <text x="120" y="260" text-anchor="middle" fill="#c4b5fd" font-size="10" font-weight="600" transform="rotate(-80 120 260)">Dream Consolidation</text>

  <!-- ════════════════════════════════════════════════════════════════════ -->
  <!-- RIGHT PATHWAY: ACT-R Retrieval (downward)                          -->
  <!-- ════════════════════════════════════════════════════════════════════ -->

  <path d="M 760 115 C 780 150, 790 180, 800 210 C 810 250, 815 290, 810 340 C 805 390, 795 440, 780 510"
        stroke="#10b981" stroke-width="2.5" fill="none" opacity="0.5" stroke-dasharray="8,4"
        marker-end="url(#arrowDown)"/>

  <!-- Search icon -->
  <circle cx="820" cy="280" r="9" fill="none" stroke="#10b981" stroke-width="1.5" opacity="0.5"/>
  <line x1="826" y1="286" x2="835" y2="295" stroke="#10b981" stroke-width="2" opacity="0.5"/>

  <text x="845" y="260" text-anchor="middle" fill="#6ee7b7" font-size="10" font-weight="600" transform="rotate(80 845 260)">ACT-R Retrieval</text>

  <!-- ════════════════════════════════════════════════════════════════════ -->
  <!-- MIDDLE ENRICHMENT LABELS (horizontal at each level boundary)       -->
  <!-- ════════════════════════════════════════════════════════════════════ -->

  <!-- Admission Scoring — between input and L1 -->
  <rect x="190" cy="560" y="558" width="140" height="22" rx="11" fill="#1e293b" stroke="#f97316" stroke-width="1.2"/>
  <text x="260" y="573" text-anchor="middle" fill="#fb923c" font-size="9" font-weight="500">⊳ Admission Scoring</text>

  <!-- State Reconciliation — at L2 level -->
  <rect x="190" y="430" width="155" height="22" rx="11" fill="#1e293b" stroke="#0ea5e9" stroke-width="1.2"/>
  <text x="267" y="445" text-anchor="middle" fill="#38bdf8" font-size="9" font-weight="500">⊳ State Reconciliation</text>

  <!-- Episode Linking — between L2 and L3 -->
  <rect x="615" y="300" width="130" height="22" rx="11" fill="#1e293b" stroke="#6366f1" stroke-width="1.2"/>
  <text x="680" y="315" text-anchor="middle" fill="#818cf8" font-size="9" font-weight="500">⊳ Episode Linking</text>

  <!-- ════════════════════════════════════════════════════════════════════ -->
  <!-- DREAM CYCLE CALLOUT — right panel                                  -->
  <!-- ════════════════════════════════════════════════════════════════════ -->

  <rect x="755" y="380" width="185" height="150" rx="12" fill="#1e293b" stroke="#06b6d4" stroke-width="1.5" opacity="0.9" filter="url(#softShadow)"/>
  <rect x="755" y="380" width="185" height="28" rx="12" fill="#06b6d4" opacity="0.25"/>
  <rect x="755" y="400" width="185" height="8" fill="#06b6d4" opacity="0.25"/>

  <!-- Moon + title -->
  <text x="785" y="399" fill="#67e8f9" font-size="14">☽</text>
  <text x="803" y="399" fill="#e2e8f0" font-size="11" font-weight="600">Dream Cycle</text>

  <!-- Rehearsal -->
  <text x="775" y="427" fill="#67e8f9" font-size="11">↻</text>
  <text x="793" y="427" fill="#e2e8f0" font-size="9" font-weight="500">Rehearsal</text>
  <text x="793" y="440" fill="#94a3b8" font-size="8">Replay important memories</text>

  <!-- PMI Learning -->
  <text x="775" y="460" fill="#67e8f9" font-size="11">⇌</text>
  <text x="793" y="460" fill="#e2e8f0" font-size="9" font-weight="500">PMI Learning</text>
  <text x="793" y="473" fill="#94a3b8" font-size="8">Entity co-access weights</text>

  <!-- Importance Drift -->
  <text x="775" y="493" fill="#67e8f9" font-size="11">↗</text>
  <text x="793" y="493" fill="#e2e8f0" font-size="9" font-weight="500">Importance Drift</text>
  <text x="793" y="506" fill="#94a3b8" font-size="8">Access trend adjustment</text>

  <text x="847" y="522" text-anchor="middle" fill="#64748b" font-size="7">Non-LLM · runs offline</text>

  <!-- Dashed connection from dream panel to consolidation pathway -->
  <line x1="755" y1="455" x2="165" y2="310" stroke="#06b6d4" stroke-width="1" opacity="0.3" stroke-dasharray="4,4"/>

  <!-- ════════════════════════════════════════════════════════════════════ -->
  <!-- BOTTOM: Feature summary bar                                        -->
  <!-- ════════════════════════════════════════════════════════════════════ -->

  <rect x="30" y="575" width="700" height="85" rx="10" fill="#1e293b" stroke="#334155" stroke-width="0.5" opacity="0.8"/>

  <!-- Column 1: Ingest Time -->
  <text x="60" y="597" fill="#f97316" font-size="10" font-weight="600">Ingest Time</text>
  <text x="60" y="613" fill="#94a3b8" font-size="8">GLiNER NER extraction</text>
  <text x="60" y="626" fill="#94a3b8" font-size="8">8-feature admission gate</text>
  <text x="60" y="639" fill="#94a3b8" font-size="8">Bitemporal state tracking</text>
  <text x="60" y="652" fill="#94a3b8" font-size="8">7-signal episode linking</text>

  <!-- Divider -->
  <line x1="230" y1="588" x2="230" y2="655" stroke="#334155" stroke-width="0.5"/>

  <!-- Column 2: Dream Time -->
  <text x="255" y="597" fill="#06b6d4" font-size="10" font-weight="600">Dream Time</text>
  <text x="255" y="613" fill="#94a3b8" font-size="8">5-signal rehearsal selector</text>
  <text x="255" y="626" fill="#94a3b8" font-size="8">PMI association learning</text>
  <text x="255" y="639" fill="#94a3b8" font-size="8">Importance drift</text>
  <text x="255" y="652" fill="#94a3b8" font-size="8">Hierarchical consolidation</text>

  <!-- Divider -->
  <line x1="430" y1="588" x2="430" y2="655" stroke="#334155" stroke-width="0.5"/>

  <!-- Column 3: Query Time -->
  <text x="455" y="597" fill="#10b981" font-size="10" font-weight="600">Query Time</text>
  <text x="455" y="613" fill="#94a3b8" font-size="8">Intent classification (7 types)</text>
  <text x="455" y="626" fill="#94a3b8" font-size="8">BM25 + SPLADE + RRF fusion</text>
  <text x="455" y="639" fill="#94a3b8" font-size="8">Graph expansion + PMI weights</text>
  <text x="455" y="652" fill="#94a3b8" font-size="8">ACT-R scoring + penalties</text>

  <!-- Zero LLM badge -->
  <rect x="635" y="610" width="85" height="22" rx="11" fill="#064e3b" stroke="#10b981" stroke-width="0.8"/>
  <text x="677" y="625" text-anchor="middle" fill="#6ee7b7" font-size="8" font-weight="600">Zero LLM</text>
  <text x="677" y="645" text-anchor="middle" fill="#64748b" font-size="7">at query time</text>

</svg>
