<svg xmlns="http://www.w3.org/2000/svg" viewBox="0 0 1400 700" font-family="'Segoe UI', system-ui, -apple-system, sans-serif">
  <defs>
    <linearGradient id="bgGrad" x1="0%" y1="0%" x2="100%" y2="100%">
      <stop offset="0%" style="stop-color:#0a0e1a;stop-opacity:1" />
      <stop offset="100%" style="stop-color:#1a1040;stop-opacity:1" />
    </linearGradient>
    <linearGradient id="hubGrad" x1="0%" y1="0%" x2="100%" y2="100%">
      <stop offset="0%" style="stop-color:#1a1240;stop-opacity:0.6" />
      <stop offset="100%" style="stop-color:#120e30;stop-opacity:0.6" />
    </linearGradient>
    <linearGradient id="poGrad" x1="0%" y1="0%" x2="100%" y2="100%">
      <stop offset="0%" style="stop-color:#14332a" />
      <stop offset="100%" style="stop-color:#0a2018" />
    </linearGradient>
    <linearGradient id="buildGrad" x1="0%" y1="0%" x2="100%" y2="100%">
      <stop offset="0%" style="stop-color:#33250e" />
      <stop offset="100%" style="stop-color:#221a08" />
    </linearGradient>
    <linearGradient id="archGrad" x1="0%" y1="0%" x2="100%" y2="100%">
      <stop offset="0%" style="stop-color:#142040" />
      <stop offset="100%" style="stop-color:#0e1530" />
    </linearGradient>
    <linearGradient id="secGrad" x1="0%" y1="0%" x2="100%" y2="100%">
      <stop offset="0%" style="stop-color:#3a1418" />
      <stop offset="100%" style="stop-color:#280c10" />
    </linearGradient>
    <linearGradient id="researchGrad" x1="0%" y1="0%" x2="100%" y2="100%">
      <stop offset="0%" style="stop-color:#0a2618" />
      <stop offset="100%" style="stop-color:#061a10" />
    </linearGradient>
    <linearGradient id="sandboxGrad" x1="0%" y1="0%" x2="100%" y2="0%">
      <stop offset="0%" style="stop-color:#0e1020" />
      <stop offset="100%" style="stop-color:#16122a" />
    </linearGradient>

    <filter id="glow">
      <feGaussianBlur stdDeviation="4" result="blur" />
      <feMerge><feMergeNode in="blur"/><feMergeNode in="SourceGraphic"/></feMerge>
    </filter>
    <filter id="softGlow">
      <feGaussianBlur stdDeviation="2" result="blur" />
      <feMerge><feMergeNode in="blur"/><feMergeNode in="SourceGraphic"/></feMerge>
    </filter>

    <marker id="arrowGreen" viewBox="0 0 10 10" refX="9" refY="5" markerWidth="7" markerHeight="7" orient="auto-start-reverse">
      <path d="M 0 1 L 10 5 L 0 9 z" fill="#4ade80" opacity="0.9"/>
    </marker>
    <marker id="arrowTeal" viewBox="0 0 10 10" refX="9" refY="5" markerWidth="7" markerHeight="7" orient="auto-start-reverse">
      <path d="M 0 1 L 10 5 L 0 9 z" fill="#10b981" opacity="0.9"/>
    </marker>
    <marker id="arrowAmber" viewBox="0 0 10 10" refX="9" refY="5" markerWidth="7" markerHeight="7" orient="auto-start-reverse">
      <path d="M 0 1 L 10 5 L 0 9 z" fill="#f59e0b" opacity="0.9"/>
    </marker>
    <marker id="arrowBlue" viewBox="0 0 10 10" refX="9" refY="5" markerWidth="7" markerHeight="7" orient="auto-start-reverse">
      <path d="M 0 1 L 10 5 L 0 9 z" fill="#60a5fa" opacity="0.9"/>
    </marker>
    <marker id="arrowRed" viewBox="0 0 10 10" refX="9" refY="5" markerWidth="7" markerHeight="7" orient="auto-start-reverse">
      <path d="M 0 1 L 10 5 L 0 9 z" fill="#f87171" opacity="0.9"/>
    </marker>
    <marker id="arrowBlueReturn" viewBox="0 0 10 10" refX="9" refY="5" markerWidth="6" markerHeight="6" orient="auto-start-reverse">
      <path d="M 0 1 L 10 5 L 0 9 z" fill="#93c5fd" opacity="0.7"/>
    </marker>
    <marker id="arrowRedReturn" viewBox="0 0 10 10" refX="9" refY="5" markerWidth="6" markerHeight="6" orient="auto-start-reverse">
      <path d="M 0 1 L 10 5 L 0 9 z" fill="#fca5a5" opacity="0.7"/>
    </marker>
  </defs>

  <!-- Background -->
  <rect width="1400" height="700" fill="url(#bgGrad)" rx="12"/>

  <!-- ════════════════════ TITLE ════════════════════ -->
  <text x="600" y="38" text-anchor="middle" fill="#e2d5ff" font-size="22" font-weight="700" filter="url(#softGlow)">Multi-Agent Software Delivery Pipeline</text>
  <text x="600" y="58" text-anchor="middle" fill="#8b7bae" font-size="11">Research to Implementation Design  |  5 Agents  |  Shared Persistent Memory  |  Full Observability</text>

  <!-- ════════════════════ NCMS KNOWLEDGE HUB (background layer) ════════════════════ -->
  <rect x="55" y="100" width="1290" height="370" rx="20" fill="url(#hubGrad)" stroke="#7c5cbf" stroke-width="1.5" stroke-dasharray="8,4" opacity="0.8"/>

  <!-- Hub label top-left -->
  <text x="85" y="128" fill="#bb80ff" font-size="13" font-weight="700" filter="url(#softGlow)">NCMS Knowledge Hub</text>
  <text x="85" y="144" fill="#8b7bae" font-size="9">BM25 (Tantivy/Rust) + SPLADE v3 Sparse Neural + Graph Spreading Activation</text>
  <text x="85" y="158" fill="#6b5b8e" font-size="9">nDCG@10 = 0.7206 on SciFact  |  Zero Vector DBs  |  Zero External API Calls</text>

  <!-- Hub internal chips along bottom of hub area -->
  <rect x="270" y="430" width="100" height="26" rx="6" fill="#12102a" stroke="#5a4a8a" stroke-width="1"/>
  <text x="320" y="447" text-anchor="middle" fill="#c4b5fd" font-size="9" font-weight="600">Memory Store</text>

  <rect x="385" y="430" width="100" height="26" rx="6" fill="#12102a" stroke="#5a4a8a" stroke-width="1"/>
  <text x="435" y="447" text-anchor="middle" fill="#c4b5fd" font-size="9" font-weight="600">Knowledge Bus</text>

  <rect x="500" y="430" width="110" height="26" rx="6" fill="#12102a" stroke="#5a4a8a" stroke-width="1"/>
  <text x="555" y="447" text-anchor="middle" fill="#c4b5fd" font-size="9" font-weight="600">Knowledge Graph</text>

  <rect x="625" y="430" width="105" height="26" rx="6" fill="#12102a" stroke="#5a4a8a" stroke-width="1"/>
  <text x="677" y="447" text-anchor="middle" fill="#c4b5fd" font-size="9" font-weight="600">Document Store</text>

  <rect x="745" y="430" width="90" height="26" rx="6" fill="#12102a" stroke="#5a4a8a" stroke-width="1"/>
  <text x="790" y="447" text-anchor="middle" fill="#c4b5fd" font-size="9" font-weight="600">Dashboard</text>

  <rect x="850" y="430" width="80" height="26" rx="6" fill="#12102a" stroke="#5a4a8a" stroke-width="1"/>
  <text x="890" y="447" text-anchor="middle" fill="#c4b5fd" font-size="9" font-weight="600">ACT-R</text>

  <!-- ════════════════════ TAVILY CLOUD (above Researcher) ════════════════════ -->
  <rect x="100" y="74" width="85" height="26" rx="8" fill="#0a1a14" stroke="#10b981" stroke-width="1" stroke-dasharray="3,2" opacity="0.7"/>
  <text x="142" y="91" text-anchor="middle" fill="#10b981" font-size="9" font-weight="600">Tavily</text>
  <path d="M 142 100 L 152 175" fill="none" stroke="#10b981" stroke-width="1" stroke-dasharray="3,2" opacity="0.5"/>

  <!-- ════════════════════ PHASE 0: RESEARCHER ════════════════════ -->
  <rect x="75" y="175" width="195" height="160" rx="14" fill="url(#researchGrad)" stroke="#10b981" stroke-width="2" filter="url(#softGlow)"/>
  <!-- Title row -->
  <circle cx="103" cy="202" r="14" fill="#0a3a22" stroke="#10b981" stroke-width="2"/>
  <text x="103" y="207" text-anchor="middle" fill="#10b981" font-size="14" font-weight="700">R</text>
  <text x="125" y="207" fill="#10b981" font-size="13" font-weight="700">Researcher</text>
  <line x1="90" y1="222" x2="255" y2="222" stroke="#1a4a32" stroke-width="0.5"/>
  <!-- Detail text -->
  <text x="90" y="240" fill="#6ee7b7" font-size="10">Deep web research</text>
  <text x="90" y="255" fill="#6ee7b7" font-size="10">Market analysis</text>
  <text x="90" y="274" fill="#34d399" font-size="9" font-style="italic">Tools: tavily_search,</text>
  <text x="90" y="288" fill="#34d399" font-size="9" font-style="italic">publish</text>
  <!-- Port box -->
  <rect x="90" y="300" width="165" height="22" rx="5" fill="#061a10" stroke="#1a4a32" stroke-width="0.5"/>
  <text x="172" y="315" text-anchor="middle" fill="#2a7a4a" font-size="8">Port 8005</text>

  <!-- ════════════════════ RESEARCH ARTIFACT ════════════════════ -->
  <rect x="295" y="240" width="75" height="50" rx="6" fill="#061a10" stroke="#10b981" stroke-width="1.5"/>
  <text x="332" y="258" text-anchor="middle" fill="#10b981" font-size="9" font-weight="700">Research</text>
  <text x="332" y="275" text-anchor="middle" fill="#2a7a4a" font-size="8">Artifact</text>

  <!-- Arrow: Researcher -> Research Artifact -->
  <path d="M 270 260 L 293 260" fill="none" stroke="#10b981" stroke-width="2" marker-end="url(#arrowTeal)" filter="url(#softGlow)"/>

  <!-- Arrow: Research Artifact -> PO -->
  <path d="M 370 265 L 398 265" fill="none" stroke="#10b981" stroke-width="2" marker-end="url(#arrowTeal)" filter="url(#softGlow)"/>

  <!-- ════════════════════ PHASE 1: PRODUCT OWNER ════════════════════ -->
  <rect x="400" y="175" width="195" height="160" rx="14" fill="url(#poGrad)" stroke="#4ade80" stroke-width="2" filter="url(#softGlow)"/>
  <!-- Title row -->
  <circle cx="428" cy="202" r="14" fill="#1a4a32" stroke="#4ade80" stroke-width="2"/>
  <text x="428" y="207" text-anchor="middle" fill="#4ade80" font-size="14" font-weight="700">PO</text>
  <text x="450" y="207" fill="#4ade80" font-size="13" font-weight="700">Product Owner</text>
  <line x1="415" y1="222" x2="580" y2="222" stroke="#2a5a3a" stroke-width="0.5"/>
  <!-- Detail text -->
  <text x="415" y="240" fill="#86efac" font-size="10">PRD authoring</text>
  <text x="415" y="255" fill="#86efac" font-size="10">Requirements analysis</text>
  <text x="415" y="274" fill="#5bb58b" font-size="9" font-style="italic">Tools: writeprd,</text>
  <text x="415" y="288" fill="#5bb58b" font-size="9" font-style="italic">ask_knowledge</text>
  <!-- Port box -->
  <rect x="415" y="300" width="165" height="22" rx="5" fill="#0e2218" stroke="#2a5a3a" stroke-width="0.5"/>
  <text x="497" y="315" text-anchor="middle" fill="#3a8a5a" font-size="8">Port 8004</text>

  <!-- ════════════════════ PRD DOCUMENT ARTIFACT ════════════════════ -->
  <rect x="620" y="240" width="75" height="50" rx="6" fill="#0e1a14" stroke="#4ade80" stroke-width="1.5"/>
  <text x="657" y="261" text-anchor="middle" fill="#4ade80" font-size="10" font-weight="700">PRD</text>
  <text x="657" y="278" text-anchor="middle" fill="#3a8a5a" font-size="8">Document</text>

  <!-- Arrow: PO -> PRD (clean horizontal) -->
  <path d="M 595 260 L 618 260" fill="none" stroke="#4ade80" stroke-width="2" marker-end="url(#arrowGreen)" filter="url(#softGlow)"/>

  <!-- Arrow: PRD -> Builder (clean horizontal) -->
  <path d="M 695 265 L 728 265" fill="none" stroke="#4ade80" stroke-width="2" marker-end="url(#arrowGreen)" filter="url(#softGlow)"/>
  <text x="712" y="255" text-anchor="middle" fill="#4ade80" font-size="8" font-weight="600">Send to</text>
  <text x="712" y="264" text-anchor="middle" fill="#4ade80" font-size="8" font-weight="600">Builder</text>

  <!-- ════════════════════ PHASE 2: BUILDER ════════════════════ -->
  <rect x="730" y="175" width="230" height="160" rx="14" fill="url(#buildGrad)" stroke="#f59e0b" stroke-width="2" filter="url(#softGlow)"/>
  <!-- Title row -->
  <circle cx="760" cy="202" r="14" fill="#4a3010" stroke="#f59e0b" stroke-width="2"/>
  <text x="760" y="207" text-anchor="middle" fill="#f59e0b" font-size="14" font-weight="700">B</text>
  <text x="782" y="207" fill="#f59e0b" font-size="13" font-weight="700">Builder</text>
  <line x1="745" y1="222" x2="945" y2="222" stroke="#5a4a2a" stroke-width="0.5"/>
  <!-- Detail text -->
  <text x="745" y="240" fill="#fde68a" font-size="10">Consults experts in parallel</text>
  <text x="745" y="255" fill="#fde68a" font-size="10">Compiles design document</text>
  <text x="745" y="274" fill="#b58b5b" font-size="9" font-style="italic">Tools: ask_knowledge,</text>
  <text x="745" y="288" fill="#b58b5b" font-size="9" font-style="italic">writedesign</text>
  <!-- Port box -->
  <rect x="745" y="300" width="200" height="22" rx="5" fill="#1a1408" stroke="#5a4a2a" stroke-width="0.5"/>
  <text x="845" y="315" text-anchor="middle" fill="#8a6a3a" font-size="8">RCTRO Prompts  |  Port 8003</text>

  <!-- ════════════════════ PARALLEL LABEL ════════════════════ -->
  <!-- Positioned to the right of Builder, above the fork -->
  <rect x="970" y="172" width="80" height="22" rx="6" fill="#2a1a0e" stroke="#f59e0b" stroke-width="1" opacity="0.9"/>
  <text x="1010" y="187" text-anchor="middle" fill="#fbbf24" font-size="9" font-weight="700">PARALLEL</text>

  <!-- ════════════════════ PHASE 3: ARCHITECT (top right) ════════════════════ -->
  <rect x="1060" y="120" width="220" height="120" rx="14" fill="url(#archGrad)" stroke="#60a5fa" stroke-width="2" filter="url(#softGlow)"/>
  <circle cx="1088" cy="147" r="14" fill="#1a2a4a" stroke="#60a5fa" stroke-width="2"/>
  <text x="1088" y="152" text-anchor="middle" fill="#60a5fa" font-size="14" font-weight="700">A</text>
  <text x="1110" y="152" fill="#60a5fa" font-size="13" font-weight="700">Architect</text>
  <line x1="1075" y1="167" x2="1265" y2="167" stroke="#2a4060" stroke-width="0.5"/>
  <text x="1075" y="183" fill="#93c5fd" font-size="10">ADRs, CALM governance</text>
  <text x="1075" y="198" fill="#93c5fd" font-size="10">System design patterns</text>
  <text x="1075" y="216" fill="#5b8bb5" font-size="9" font-style="italic">Seeds: ADRs, CALM, C4</text>
  <rect x="1075" y="222" width="190" height="14" rx="4" fill="#0e1830"/>
  <text x="1170" y="232" text-anchor="middle" fill="#3b6a9f" font-size="7">Port 8001</text>

  <!-- ════════════════════ PHASE 3: SECURITY (bottom right) ════════════════════ -->
  <rect x="1060" y="280" width="220" height="120" rx="14" fill="url(#secGrad)" stroke="#f87171" stroke-width="2" filter="url(#softGlow)"/>
  <circle cx="1088" cy="307" r="14" fill="#4a1a1a" stroke="#f87171" stroke-width="2"/>
  <text x="1088" y="312" text-anchor="middle" fill="#f87171" font-size="14" font-weight="700">S</text>
  <text x="1110" y="312" fill="#f87171" font-size="13" font-weight="700">Security</text>
  <line x1="1075" y1="327" x2="1265" y2="327" stroke="#5a2020" stroke-width="0.5"/>
  <text x="1075" y="343" fill="#fca5a5" font-size="10">STRIDE threats, OWASP</text>
  <text x="1075" y="358" fill="#fca5a5" font-size="10">THR-001, THR-002, NIST refs</text>
  <text x="1075" y="376" fill="#b55b5b" font-size="9" font-style="italic">Seeds: STRIDE, OWASP</text>
  <rect x="1075" y="382" width="190" height="14" rx="4" fill="#200e10"/>
  <text x="1170" y="392" text-anchor="middle" fill="#9f3b3b" font-size="7">Port 8002</text>

  <!-- ════════════════════ ARROWS: BUILDER -> EXPERTS ════════════════════ -->

  <!-- Arrow: Builder top-right corner -> Architect (curves up and over to right) -->
  <path d="M 960 210 Q 1010 170 1058 175" fill="none" stroke="#60a5fa" stroke-width="2" marker-end="url(#arrowBlue)" filter="url(#softGlow)"/>

  <!-- Arrow: Builder bottom-right corner -> Security (curves down and over to right) -->
  <path d="M 960 310 Q 1010 340 1058 335" fill="none" stroke="#f87171" stroke-width="2" marker-end="url(#arrowRed)" filter="url(#softGlow)"/>

  <!-- Return arrow: Architect -> Builder (dashed, curves back below architect box) -->
  <path d="M 1060 220 Q 1010 235 962 230" fill="none" stroke="#93c5fd" stroke-width="1.5" stroke-dasharray="5,3" marker-end="url(#arrowBlueReturn)" opacity="0.6"/>

  <!-- Return arrow: Security -> Builder (dashed, curves back above security box) -->
  <path d="M 1060 295 Q 1010 285 962 290" fill="none" stroke="#fca5a5" stroke-width="1.5" stroke-dasharray="5,3" marker-end="url(#arrowRedReturn)" opacity="0.6"/>

  <!-- ════════════════════ PHASE 4: DESIGN OUTPUT ════════════════════ -->
  <rect x="1300" y="240" width="100" height="55" rx="8" fill="#1a1408" stroke="#f59e0b" stroke-width="2"/>
  <text x="1350" y="263" text-anchor="middle" fill="#f59e0b" font-size="11" font-weight="700">Design</text>
  <text x="1350" y="280" text-anchor="middle" fill="#b58b3b" font-size="9">Document</text>

  <!-- Arrow: Builder -> Design Doc (route cleanly between Architect and Security) -->
  <path d="M 960 260 L 1040 260 Q 1050 260 1050 260 L 1298 262" fill="none" stroke="#f59e0b" stroke-width="2" marker-end="url(#arrowAmber)" filter="url(#softGlow)"/>
  <text x="1140" y="252" text-anchor="middle" fill="#f59e0b" font-size="8" font-weight="600">Publishes</text>

  <!-- ════════════════════ HUMAN OVERSIGHT ════════════════════ -->
  <rect x="1300" y="140" width="120" height="65" rx="10" fill="#16142a" stroke="#a78bfa" stroke-width="1.5"/>
  <text x="1360" y="163" text-anchor="middle" fill="#a78bfa" font-size="11" font-weight="700">Human</text>
  <text x="1360" y="179" text-anchor="middle" fill="#7b6bae" font-size="9">Review + Approve</text>
  <text x="1360" y="195" text-anchor="middle" fill="#7b6bae" font-size="9">Dashboard Chat</text>

  <!-- ════════════════════ FLOW PHASE LABELS ════════════════════ -->
  <rect x="120" y="475" width="80" height="20" rx="5" fill="#061a10" stroke="#10b981" stroke-width="1" opacity="0.8"/>
  <text x="160" y="489" text-anchor="middle" fill="#10b981" font-size="9" font-weight="700">Phase 0</text>

  <rect x="435" y="475" width="80" height="20" rx="5" fill="#0e2218" stroke="#4ade80" stroke-width="1" opacity="0.8"/>
  <text x="475" y="489" text-anchor="middle" fill="#4ade80" font-size="9" font-weight="700">Phase 1-2</text>

  <rect x="795" y="475" width="100" height="20" rx="5" fill="#1a1408" stroke="#f59e0b" stroke-width="1" opacity="0.8"/>
  <text x="845" y="489" text-anchor="middle" fill="#f59e0b" font-size="9" font-weight="700">Phase 3</text>

  <rect x="1135" y="475" width="100" height="20" rx="5" fill="#12102a" stroke="#a78bfa" stroke-width="1" opacity="0.8"/>
  <text x="1185" y="489" text-anchor="middle" fill="#a78bfa" font-size="9" font-weight="700">Phase 4</text>

  <!-- ════════════════════ NEMOCLAW SANDBOXES BAR ════════════════════ -->
  <rect x="55" y="510" width="1085" height="55" rx="12" fill="url(#sandboxGrad)" stroke="#5a4a7a" stroke-width="1"/>
  <text x="80" y="533" fill="#9b8bbe" font-size="12" font-weight="700">NemoClaw Sandboxes</text>
  <text x="80" y="550" fill="#6b5b8e" font-size="9">Kernel-level isolation  |  Explicit network policies  |  OpenShell proxy</text>

  <!-- Individual sandbox boxes -->
  <rect x="370" y="518" width="85" height="38" rx="6" fill="#061a10" stroke="#10b981" stroke-width="1"/>
  <text x="412" y="538" text-anchor="middle" fill="#10b981" font-size="8" font-weight="600">Researcher</text>
  <text x="412" y="550" text-anchor="middle" fill="#2a7a4a" font-size="7">sandbox</text>

  <rect x="470" y="518" width="85" height="38" rx="6" fill="#0a1a14" stroke="#4ade80" stroke-width="1"/>
  <text x="512" y="538" text-anchor="middle" fill="#4ade80" font-size="8" font-weight="600">PO</text>
  <text x="512" y="550" text-anchor="middle" fill="#2a6a4a" font-size="7">sandbox</text>

  <rect x="570" y="518" width="85" height="38" rx="6" fill="#1a1408" stroke="#f59e0b" stroke-width="1"/>
  <text x="612" y="538" text-anchor="middle" fill="#f59e0b" font-size="8" font-weight="600">Builder</text>
  <text x="612" y="550" text-anchor="middle" fill="#8a6a3a" font-size="7">sandbox</text>

  <rect x="670" y="518" width="85" height="38" rx="6" fill="#0e1830" stroke="#60a5fa" stroke-width="1"/>
  <text x="712" y="538" text-anchor="middle" fill="#60a5fa" font-size="8" font-weight="600">Architect</text>
  <text x="712" y="550" text-anchor="middle" fill="#3b6a9f" font-size="7">sandbox</text>

  <rect x="770" y="518" width="85" height="38" rx="6" fill="#200e10" stroke="#f87171" stroke-width="1"/>
  <text x="812" y="538" text-anchor="middle" fill="#f87171" font-size="8" font-weight="600">Security</text>
  <text x="812" y="550" text-anchor="middle" fill="#9f3b3b" font-size="7">sandbox</text>

  <!-- ════════════════════ PHOENIX OBSERVABILITY ════════════════════ -->
  <rect x="1160" y="510" width="180" height="55" rx="12" fill="#0e1020" stroke="#a78bfa" stroke-width="1.5"/>
  <text x="1250" y="533" text-anchor="middle" fill="#a78bfa" font-size="12" font-weight="700">Phoenix Tracing</text>
  <text x="1250" y="550" text-anchor="middle" fill="#6b5b8e" font-size="9">OpenTelemetry  |  :6006</text>

  <!-- Dotted lines from agents down to sandboxes -->
  <path d="M 172 335 L 412 518" fill="none" stroke="#10b981" stroke-width="0.8" stroke-dasharray="3,3" opacity="0.3"/>
  <path d="M 497 335 L 512 518" fill="none" stroke="#4ade80" stroke-width="0.8" stroke-dasharray="3,3" opacity="0.3"/>
  <path d="M 845 335 L 612 518" fill="none" stroke="#f59e0b" stroke-width="0.8" stroke-dasharray="3,3" opacity="0.3"/>
  <path d="M 1170 240 L 712 518" fill="none" stroke="#60a5fa" stroke-width="0.8" stroke-dasharray="3,3" opacity="0.3"/>
  <path d="M 1170 400 L 812 518" fill="none" stroke="#f87171" stroke-width="0.8" stroke-dasharray="3,3" opacity="0.3"/>

  <!-- ════════════════════ DGX SPARK BAR ════════════════════ -->
  <rect x="55" y="585" width="1290" height="50" rx="10" fill="#08060e" stroke="#3a2a5a" stroke-width="1"/>
  <text x="700" y="608" text-anchor="middle" fill="#bb80ff" font-size="12" font-weight="700" filter="url(#softGlow)">DGX Spark  |  Nemotron Nano 30B  |  256 Experts, 3B Active  |  128GB  |  65K Context  |  vLLM + qwen3_coder</text>
  <text x="700" y="626" text-anchor="middle" fill="#5a4a7a" font-size="9">3B Active Params  |  DGX Spark  |  Zero Vector DBs</text>

  <!-- ════════════════════ LEGEND ════════════════════ -->
  <rect x="55" y="655" width="1290" height="35" rx="8" fill="#08060e" stroke="#2a2a3a" stroke-width="0.5"/>
  <line x1="95" y1="675" x2="125" y2="675" stroke="#10b981" stroke-width="2"/>
  <text x="130" y="679" fill="#10b981" font-size="9">Research</text>
  <line x1="215" y1="675" x2="245" y2="675" stroke="#4ade80" stroke-width="2"/>
  <text x="250" y="679" fill="#4ade80" font-size="9">PRD</text>
  <line x1="300" y1="675" x2="330" y2="675" stroke="#f59e0b" stroke-width="2"/>
  <text x="335" y="679" fill="#f59e0b" font-size="9">Build + Design</text>
  <line x1="455" y1="675" x2="485" y2="675" stroke="#60a5fa" stroke-width="2"/>
  <text x="490" y="679" fill="#60a5fa" font-size="9">Architecture</text>
  <line x1="590" y1="675" x2="620" y2="675" stroke="#f87171" stroke-width="2"/>
  <text x="625" y="679" fill="#f87171" font-size="9">Security</text>
  <line x1="700" y1="675" x2="730" y2="675" stroke="#93c5fd" stroke-width="1.5" stroke-dasharray="4,2"/>
  <text x="735" y="679" fill="#8b8b9e" font-size="9">Expert Response</text>
  <line x1="850" y1="675" x2="880" y2="675" stroke="#a78bfa" stroke-width="1.5"/>
  <text x="885" y="679" fill="#a78bfa" font-size="9">Observability</text>
  <text x="1100" y="679" fill="#5a4a6a" font-size="8">Built in &lt;2 weeks</text>
</svg>
