<svg xmlns="http://www.w3.org/2000/svg" viewBox="0 0 800 920">
  <defs>
    <linearGradient id="bgGrad" x1="0" y1="0" x2="0" y2="1">
      <stop offset="0%" stop-color="#0a0e1a"/>
      <stop offset="100%" stop-color="#0f1528"/>
    </linearGradient>
    <linearGradient id="poGrad" x1="0" y1="0" x2="1" y2="0">
      <stop offset="0%" stop-color="#22c55e" stop-opacity="0.15"/>
      <stop offset="100%" stop-color="#22c55e" stop-opacity="0.05"/>
    </linearGradient>
    <linearGradient id="builderGrad" x1="0" y1="0" x2="1" y2="0">
      <stop offset="0%" stop-color="#f59e0b" stop-opacity="0.15"/>
      <stop offset="100%" stop-color="#f59e0b" stop-opacity="0.05"/>
    </linearGradient>
    <linearGradient id="archGrad" x1="0" y1="0" x2="1" y2="0">
      <stop offset="0%" stop-color="#3b82f6" stop-opacity="0.15"/>
      <stop offset="100%" stop-color="#3b82f6" stop-opacity="0.05"/>
    </linearGradient>
    <linearGradient id="secGrad" x1="0" y1="0" x2="1" y2="0">
      <stop offset="0%" stop-color="#ef4444" stop-opacity="0.15"/>
      <stop offset="100%" stop-color="#ef4444" stop-opacity="0.05"/>
    </linearGradient>
    <linearGradient id="researchGrad" x1="0" y1="0" x2="1" y2="0">
      <stop offset="0%" stop-color="#10b981" stop-opacity="0.12"/>
      <stop offset="100%" stop-color="#10b981" stop-opacity="0.04"/>
    </linearGradient>
    <linearGradient id="cyanGrad" x1="0" y1="0" x2="1" y2="0">
      <stop offset="0%" stop-color="#06b6d4" stop-opacity="0.2"/>
      <stop offset="100%" stop-color="#06b6d4" stop-opacity="0.08"/>
    </linearGradient>
    <linearGradient id="expertGrad" x1="0" y1="0" x2="1" y2="0">
      <stop offset="0%" stop-color="#a78bfa" stop-opacity="0.15"/>
      <stop offset="100%" stop-color="#a78bfa" stop-opacity="0.05"/>
    </linearGradient>
    <filter id="glow">
      <feGaussianBlur stdDeviation="2" result="blur"/>
      <feMerge><feMergeNode in="blur"/><feMergeNode in="SourceGraphic"/></feMerge>
    </filter>
  </defs>

  <!-- Background -->
  <rect width="800" height="920" fill="url(#bgGrad)"/>

  <!-- ===== PHASE 1: Knowledge Seeding ===== -->
  <g transform="translate(0, 8)">
    <circle cx="50" cy="18" r="14" fill="none" stroke="#64748b" stroke-width="1.5"/>
    <text x="50" y="23" text-anchor="middle" fill="#94a3b8" font-family="system-ui, sans-serif" font-size="13" font-weight="700">1</text>
    <text x="72" y="23" fill="#e2e8f0" font-family="system-ui, sans-serif" font-size="13" font-weight="600">Knowledge Seeding</text>

    <!-- Architect loads -->
    <rect x="30" y="38" width="220" height="46" rx="6" fill="url(#archGrad)" stroke="#3b82f6" stroke-width="1" stroke-opacity="0.4"/>
    <text x="46" y="54" fill="#3b82f6" font-family="system-ui, sans-serif" font-size="11" font-weight="700">Architect</text>
    <text x="46" y="68" fill="#93c5fd" font-family="system-ui, sans-serif" font-size="9">ADRs, CALM specs, quality attributes</text>
    <text x="46" y="78" fill="#93c5fd" font-family="system-ui, sans-serif" font-size="8">&#x2192; NCMS Memory</text>

    <!-- Security loads -->
    <rect x="550" y="38" width="220" height="46" rx="6" fill="url(#secGrad)" stroke="#ef4444" stroke-width="1" stroke-opacity="0.4"/>
    <text x="566" y="54" fill="#ef4444" font-family="system-ui, sans-serif" font-size="11" font-weight="700">Security</text>
    <text x="566" y="68" fill="#fca5a5" font-family="system-ui, sans-serif" font-size="9">STRIDE threats, OWASP controls, NIST refs</text>
    <text x="566" y="78" fill="#fca5a5" font-family="system-ui, sans-serif" font-size="8">&#x2192; NCMS Memory</text>

    <!-- Arrows into NCMS Hub -->
    <line x1="250" y1="61" x2="305" y2="61" stroke="#3b82f6" stroke-width="1.5" stroke-opacity="0.5"/>
    <polygon points="303,56 313,61 303,66" fill="#3b82f6" fill-opacity="0.6"/>
    <line x1="550" y1="61" x2="495" y2="61" stroke="#ef4444" stroke-width="1.5" stroke-opacity="0.5"/>
    <polygon points="497,56 487,61 497,66" fill="#ef4444" fill-opacity="0.6"/>

    <!-- NCMS Hub -->
    <rect x="313" y="42" width="174" height="38" rx="8" fill="url(#cyanGrad)" stroke="#06b6d4" stroke-width="1.5"/>
    <text x="400" y="57" text-anchor="middle" fill="#22d3ee" font-family="system-ui, sans-serif" font-size="12" font-weight="700">NCMS Hub</text>
    <text x="400" y="72" text-anchor="middle" fill="#67e8f9" font-family="system-ui, sans-serif" font-size="9">BM25 + SPLADE v3</text>
  </g>

  <!-- Connector arrow 1->2 -->
  <line x1="400" y1="96" x2="400" y2="114" stroke="#475569" stroke-width="1.5" stroke-dasharray="4,3"/>
  <polygon points="395,112 400,120 405,112" fill="#475569"/>

  <!-- ===== PHASE 2: Research ===== -->
  <g transform="translate(0, 120)">
    <circle cx="50" cy="18" r="14" fill="none" stroke="#64748b" stroke-width="1.5"/>
    <text x="50" y="23" text-anchor="middle" fill="#94a3b8" font-family="system-ui, sans-serif" font-size="13" font-weight="700">2</text>
    <text x="72" y="23" fill="#e2e8f0" font-family="system-ui, sans-serif" font-size="13" font-weight="600">Research</text>

    <!-- Researcher box -->
    <rect x="30" y="36" width="680" height="68" rx="8" fill="url(#researchGrad)" stroke="#10b981" stroke-width="1" stroke-opacity="0.5"/>
    <text x="46" y="52" fill="#10b981" font-family="system-ui, sans-serif" font-size="11" font-weight="700">Researcher</text>

    <!-- Node: plan_queries -->
    <rect x="50" y="60" width="96" height="28" rx="5" fill="#0f1528" stroke="#34d399" stroke-width="1" stroke-opacity="0.6"/>
    <text x="98" y="78" text-anchor="middle" fill="#6ee7b7" font-family="system-ui, sans-serif" font-size="9" font-weight="600">plan_queries</text>

    <!-- Arrow -->
    <line x1="146" y1="74" x2="168" y2="74" stroke="#34d399" stroke-width="1.2" stroke-opacity="0.5"/>
    <polygon points="166,70 174,74 166,78" fill="#34d399" fill-opacity="0.6"/>

    <!-- Node: parallel_search -->
    <rect x="174" y="56" width="120" height="36" rx="5" fill="#0f1528" stroke="#34d399" stroke-width="1" stroke-opacity="0.6"/>
    <text x="234" y="72" text-anchor="middle" fill="#6ee7b7" font-family="system-ui, sans-serif" font-size="9" font-weight="600">parallel_search</text>
    <text x="234" y="84" text-anchor="middle" fill="#94a3b8" font-family="system-ui, sans-serif" font-size="8">5x Tavily</text>

    <!-- Arrow -->
    <line x1="294" y1="74" x2="316" y2="74" stroke="#34d399" stroke-width="1.2" stroke-opacity="0.5"/>
    <polygon points="314,70 322,74 314,78" fill="#34d399" fill-opacity="0.6"/>

    <!-- Node: synthesize -->
    <rect x="322" y="60" width="86" height="28" rx="5" fill="#0f1528" stroke="#34d399" stroke-width="1" stroke-opacity="0.6"/>
    <text x="365" y="78" text-anchor="middle" fill="#6ee7b7" font-family="system-ui, sans-serif" font-size="9" font-weight="600">synthesize</text>

    <!-- Arrow -->
    <line x1="408" y1="74" x2="430" y2="74" stroke="#34d399" stroke-width="1.2" stroke-opacity="0.5"/>
    <polygon points="428,70 436,74 428,78" fill="#34d399" fill-opacity="0.6"/>

    <!-- Node: publish -->
    <rect x="436" y="60" width="72" height="28" rx="5" fill="#0f1528" stroke="#34d399" stroke-width="1" stroke-opacity="0.6"/>
    <text x="472" y="78" text-anchor="middle" fill="#6ee7b7" font-family="system-ui, sans-serif" font-size="9" font-weight="600">publish</text>

    <!-- Arrow -->
    <line x1="508" y1="74" x2="530" y2="74" stroke="#34d399" stroke-width="1.2" stroke-opacity="0.5"/>
    <polygon points="528,70 536,74 528,78" fill="#34d399" fill-opacity="0.6"/>

    <!-- Node: trigger -->
    <rect x="536" y="60" width="72" height="28" rx="5" fill="#0f1528" stroke="#34d399" stroke-width="1" stroke-opacity="0.6"/>
    <text x="572" y="78" text-anchor="middle" fill="#6ee7b7" font-family="system-ui, sans-serif" font-size="9" font-weight="600">trigger</text>

    <!-- Output artifact -->
    <rect x="626" y="60" width="72" height="28" rx="5" fill="#1e293b" stroke="#64748b" stroke-width="1"/>
    <text x="662" y="78" text-anchor="middle" fill="#94a3b8" font-family="system-ui, sans-serif" font-size="9" font-weight="600">11KB Report</text>
  </g>

  <!-- Auto-trigger connector 2->3 -->
  <line x1="400" y1="226" x2="400" y2="250" stroke="#22c55e" stroke-width="1.5" stroke-dasharray="4,3"/>
  <polygon points="395,248 400,256 405,248" fill="#22c55e"/>
  <text x="430" y="242" fill="#22c55e" font-family="system-ui, sans-serif" font-size="9" font-weight="600">&#x1F517; auto-trigger</text>

  <!-- ===== PHASE 3: PRD Creation ===== -->
  <g transform="translate(0, 256)">
    <circle cx="50" cy="18" r="14" fill="none" stroke="#64748b" stroke-width="1.5"/>
    <text x="50" y="23" text-anchor="middle" fill="#94a3b8" font-family="system-ui, sans-serif" font-size="13" font-weight="700">3</text>
    <text x="72" y="23" fill="#e2e8f0" font-family="system-ui, sans-serif" font-size="13" font-weight="600">PRD Creation</text>

    <!-- Product Owner box -->
    <rect x="30" y="36" width="680" height="96" rx="8" fill="url(#poGrad)" stroke="#22c55e" stroke-width="1" stroke-opacity="0.5"/>
    <text x="46" y="52" fill="#22c55e" font-family="system-ui, sans-serif" font-size="11" font-weight="700">Product Owner</text>

    <!-- Node: read_document -->
    <rect x="50" y="60" width="100" height="28" rx="5" fill="#0f1528" stroke="#4ade80" stroke-width="1" stroke-opacity="0.6"/>
    <text x="100" y="78" text-anchor="middle" fill="#86efac" font-family="system-ui, sans-serif" font-size="9" font-weight="600">read_document</text>

    <!-- Arrow -->
    <line x1="150" y1="74" x2="172" y2="74" stroke="#4ade80" stroke-width="1.2" stroke-opacity="0.5"/>
    <polygon points="170,70 178,74 170,78" fill="#4ade80" fill-opacity="0.6"/>

    <!-- Node: ask_experts -->
    <rect x="178" y="56" width="104" height="36" rx="5" fill="#0f1528" stroke="#4ade80" stroke-width="1" stroke-opacity="0.6"/>
    <text x="230" y="70" text-anchor="middle" fill="#86efac" font-family="system-ui, sans-serif" font-size="9" font-weight="600">ask_experts</text>

    <!-- Expert LangGraph label -->
    <text x="230" y="82" text-anchor="middle" fill="#c4b5fd" font-family="system-ui, sans-serif" font-size="7">&#x2191; Expert LangGraph &#x2191;</text>
    <text x="230" y="90" text-anchor="middle" fill="#64748b" font-family="system-ui, sans-serif" font-size="6">classify &#x2192; memory &#x2192; synthesize</text>

    <!-- Arrow -->
    <line x1="282" y1="74" x2="304" y2="74" stroke="#4ade80" stroke-width="1.2" stroke-opacity="0.5"/>
    <polygon points="302,70 310,74 302,78" fill="#4ade80" fill-opacity="0.6"/>

    <!-- Node: synthesize_prd -->
    <rect x="310" y="60" width="100" height="28" rx="5" fill="#0f1528" stroke="#4ade80" stroke-width="1" stroke-opacity="0.6"/>
    <text x="360" y="78" text-anchor="middle" fill="#86efac" font-family="system-ui, sans-serif" font-size="9" font-weight="600">synthesize_prd</text>

    <!-- Arrow -->
    <line x1="410" y1="74" x2="432" y2="74" stroke="#4ade80" stroke-width="1.2" stroke-opacity="0.5"/>
    <polygon points="430,70 438,74 430,78" fill="#4ade80" fill-opacity="0.6"/>

    <!-- Node: publish -->
    <rect x="438" y="60" width="72" height="28" rx="5" fill="#0f1528" stroke="#4ade80" stroke-width="1" stroke-opacity="0.6"/>
    <text x="474" y="78" text-anchor="middle" fill="#86efac" font-family="system-ui, sans-serif" font-size="9" font-weight="600">publish</text>

    <!-- Arrow -->
    <line x1="510" y1="74" x2="532" y2="74" stroke="#4ade80" stroke-width="1.2" stroke-opacity="0.5"/>
    <polygon points="530,70 538,74 530,78" fill="#4ade80" fill-opacity="0.6"/>

    <!-- Node: trigger -->
    <rect x="538" y="60" width="72" height="28" rx="5" fill="#0f1528" stroke="#4ade80" stroke-width="1" stroke-opacity="0.6"/>
    <text x="574" y="78" text-anchor="middle" fill="#86efac" font-family="system-ui, sans-serif" font-size="9" font-weight="600">trigger</text>

    <!-- Output artifact + tags together -->
    <rect x="626" y="52" width="76" height="44" rx="5" fill="#1e293b" stroke="#64748b" stroke-width="1"/>
    <text x="664" y="68" text-anchor="middle" fill="#94a3b8" font-family="system-ui, sans-serif" font-size="9" font-weight="600">16KB PRD</text>
    <text x="664" y="82" text-anchor="middle" fill="#6ee7b7" font-family="system-ui, sans-serif" font-size="7">ADR STRIDE CALM</text>
    <text x="664" y="92" text-anchor="middle" fill="#6ee7b7" font-family="system-ui, sans-serif" font-size="7">NIST PKCE RS256</text>
  </g>

  <!-- Auto-trigger connector 3->4 -->
  <line x1="400" y1="390" x2="400" y2="414" stroke="#22c55e" stroke-width="1.5" stroke-dasharray="4,3"/>
  <polygon points="395,412 400,420 405,412" fill="#22c55e"/>
  <text x="430" y="406" fill="#22c55e" font-family="system-ui, sans-serif" font-size="9" font-weight="600">&#x1F517; auto-trigger</text>

  <!-- ===== PHASE 4: Implementation Design (with Review Loop) ===== -->
  <g transform="translate(0, 420)">
    <circle cx="50" cy="18" r="14" fill="none" stroke="#64748b" stroke-width="1.5"/>
    <text x="50" y="23" text-anchor="middle" fill="#94a3b8" font-family="system-ui, sans-serif" font-size="13" font-weight="700">4</text>
    <text x="72" y="23" fill="#e2e8f0" font-family="system-ui, sans-serif" font-size="13" font-weight="600">Implementation Design</text>

    <!-- Builder box (taller to accommodate review loop) -->
    <rect x="30" y="36" width="680" height="172" rx="8" fill="url(#builderGrad)" stroke="#f59e0b" stroke-width="1" stroke-opacity="0.5"/>
    <text x="46" y="52" fill="#f59e0b" font-family="system-ui, sans-serif" font-size="11" font-weight="700">Builder</text>

    <!-- === Row 1: Main pipeline === -->
    <!-- Node: read_document -->
    <rect x="50" y="60" width="100" height="28" rx="5" fill="#0f1528" stroke="#fbbf24" stroke-width="1" stroke-opacity="0.6"/>
    <text x="100" y="78" text-anchor="middle" fill="#fde68a" font-family="system-ui, sans-serif" font-size="9" font-weight="600">read_document</text>

    <!-- Arrow -->
    <line x1="150" y1="74" x2="172" y2="74" stroke="#fbbf24" stroke-width="1.2" stroke-opacity="0.5"/>
    <polygon points="170,70 178,74 170,78" fill="#fbbf24" fill-opacity="0.6"/>

    <!-- Node: ask_experts -->
    <rect x="178" y="56" width="104" height="36" rx="5" fill="#0f1528" stroke="#fbbf24" stroke-width="1" stroke-opacity="0.6"/>
    <text x="230" y="70" text-anchor="middle" fill="#fde68a" font-family="system-ui, sans-serif" font-size="9" font-weight="600">ask_experts</text>
    <text x="230" y="82" text-anchor="middle" fill="#c4b5fd" font-family="system-ui, sans-serif" font-size="7">&#x2191; Expert LangGraph &#x2191;</text>
    <text x="230" y="90" text-anchor="middle" fill="#64748b" font-family="system-ui, sans-serif" font-size="6">classify &#x2192; memory &#x2192; synthesize</text>

    <!-- Arrow -->
    <line x1="282" y1="74" x2="304" y2="74" stroke="#fbbf24" stroke-width="1.2" stroke-opacity="0.5"/>
    <polygon points="302,70 310,74 302,78" fill="#fbbf24" fill-opacity="0.6"/>

    <!-- Node: synthesize_design -->
    <rect x="310" y="60" width="110" height="28" rx="5" fill="#0f1528" stroke="#fbbf24" stroke-width="1" stroke-opacity="0.6"/>
    <text x="365" y="78" text-anchor="middle" fill="#fde68a" font-family="system-ui, sans-serif" font-size="9" font-weight="600">synthesize_design</text>

    <!-- Arrow -->
    <line x1="420" y1="74" x2="442" y2="74" stroke="#fbbf24" stroke-width="1.2" stroke-opacity="0.5"/>
    <polygon points="440,70 448,74 440,78" fill="#fbbf24" fill-opacity="0.6"/>

    <!-- Node: publish -->
    <rect x="448" y="60" width="72" height="28" rx="5" fill="#0f1528" stroke="#fbbf24" stroke-width="1" stroke-opacity="0.6"/>
    <text x="484" y="78" text-anchor="middle" fill="#fde68a" font-family="system-ui, sans-serif" font-size="9" font-weight="600">publish</text>

    <!-- Arrow down to request_review -->
    <line x1="484" y1="88" x2="484" y2="108" stroke="#fbbf24" stroke-width="1.2" stroke-opacity="0.5"/>
    <polygon points="479,106 484,114 489,106" fill="#fbbf24" fill-opacity="0.6"/>

    <!-- === Row 2: Review Loop === -->
    <!-- Node: request_review -->
    <rect x="436" y="114" width="96" height="28" rx="5" fill="#0f1528" stroke="#c084fc" stroke-width="1" stroke-opacity="0.8"/>
    <text x="484" y="132" text-anchor="middle" fill="#e9d5ff" font-family="system-ui, sans-serif" font-size="9" font-weight="600">request_review</text>

    <!-- Arrow to conditional diamond -->
    <line x1="532" y1="128" x2="556" y2="128" stroke="#c084fc" stroke-width="1.2" stroke-opacity="0.5"/>
    <polygon points="554,124 562,128 554,132" fill="#c084fc" fill-opacity="0.6"/>

    <!-- Conditional diamond -->
    <polygon points="580,114 604,128 580,142 556,128" fill="#0f1528" stroke="#c084fc" stroke-width="1.2" stroke-opacity="0.8"/>
    <text x="580" y="131" text-anchor="middle" fill="#e9d5ff" font-family="system-ui, sans-serif" font-size="7" font-weight="700">&#x2265;80%?</text>

    <!-- YES path: right to verify -->
    <line x1="604" y1="128" x2="626" y2="128" stroke="#4ade80" stroke-width="1.2" stroke-opacity="0.6"/>
    <polygon points="624,124 632,128 624,132" fill="#4ade80" fill-opacity="0.6"/>
    <text x="615" y="122" text-anchor="middle" fill="#4ade80" font-family="system-ui, sans-serif" font-size="7" font-weight="600">YES</text>

    <!-- Node: verify -->
    <rect x="632" y="114" width="62" height="28" rx="5" fill="#0f1528" stroke="#4ade80" stroke-width="1.2" stroke-opacity="0.8"/>
    <text x="663" y="132" text-anchor="middle" fill="#86efac" font-family="system-ui, sans-serif" font-size="9" font-weight="600">verify</text>

    <!-- NO path: down from diamond then left to revise -->
    <line x1="580" y1="142" x2="580" y2="164" stroke="#f87171" stroke-width="1.2" stroke-opacity="0.6"/>
    <text x="594" y="155" fill="#f87171" font-family="system-ui, sans-serif" font-size="7" font-weight="600">NO</text>

    <!-- Revise node -->
    <rect x="536" y="158" width="88" height="28" rx="5" fill="#0f1528" stroke="#f87171" stroke-width="1" stroke-opacity="0.6"/>
    <text x="580" y="176" text-anchor="middle" fill="#fca5a5" font-family="system-ui, sans-serif" font-size="9" font-weight="600">revise</text>

    <!-- Loop arrow: revise back left to publish (curved via path) -->
    <path d="M 536,172 L 484,172 L 484,158" fill="none" stroke="#f87171" stroke-width="1.2" stroke-opacity="0.5" stroke-dasharray="3,2"/>
    <polygon points="479,160 484,152 489,160" fill="#f87171" fill-opacity="0.6"/>
    <text x="510" y="168" text-anchor="middle" fill="#64748b" font-family="system-ui, sans-serif" font-size="6">re-publish</text>

    <!-- Review scores annotation -->
    <rect x="50" y="116" width="370" height="40" rx="5" fill="#0f1528" stroke="#475569" stroke-width="0.8" stroke-opacity="0.4"/>
    <text x="66" y="132" fill="#94a3b8" font-family="system-ui, sans-serif" font-size="8" font-weight="600">Review Loop</text>
    <text x="66" y="144" fill="#f87171" font-family="system-ui, sans-serif" font-size="8">R1: Arch 88% / Sec 78% &#x2192; approved</text>
    <text x="260" y="144" fill="#4ade80" font-family="system-ui, sans-serif" font-size="8">Approved round 1 &#x2713;</text>

    <!-- Loop iteration indicator -->
    <text x="66" y="196" fill="#64748b" font-family="system-ui, sans-serif" font-size="7">publish &#x2192; request_review &#x2192; [&#x2265;80%? verify : revise &#x2192; publish &#x2192; ...]</text>
  </g>

  <!-- Output artifact for Phase 4 (outside the builder box, positioned to its right) -->
  <g transform="translate(0, 420)">
    <rect x="626" y="46" width="76" height="58" rx="5" fill="#1e293b" stroke="#64748b" stroke-width="1"/>
    <text x="664" y="60" text-anchor="middle" fill="#94a3b8" font-family="system-ui, sans-serif" font-size="9" font-weight="600">21KB</text>
    <text x="664" y="72" text-anchor="middle" fill="#94a3b8" font-family="system-ui, sans-serif" font-size="9" font-weight="600">Design v2</text>
    <text x="664" y="84" text-anchor="middle" fill="#fde68a" font-family="system-ui, sans-serif" font-size="7">JWT interfaces</text>
    <text x="664" y="94" text-anchor="middle" fill="#fde68a" font-family="system-ui, sans-serif" font-size="7">TypeScript middleware</text>
    <!-- Approved badge -->
    <rect x="638" y="97" width="52" height="14" rx="3" fill="#166534" stroke="#4ade80" stroke-width="0.8"/>
    <text x="664" y="107" text-anchor="middle" fill="#86efac" font-family="system-ui, sans-serif" font-size="7" font-weight="700">Approved 83%</text>
  </g>

  <!-- Connector arrow 4->5 -->
  <line x1="400" y1="632" x2="400" y2="656" stroke="#475569" stroke-width="1.5" stroke-dasharray="4,3"/>
  <polygon points="395,654 400,662 405,654" fill="#475569"/>

  <!-- ===== PHASE 5: Observability ===== -->
  <g transform="translate(0, 662)">
    <circle cx="50" cy="18" r="14" fill="none" stroke="#64748b" stroke-width="1.5"/>
    <text x="50" y="23" text-anchor="middle" fill="#94a3b8" font-family="system-ui, sans-serif" font-size="13" font-weight="700">5</text>
    <text x="72" y="23" fill="#e2e8f0" font-family="system-ui, sans-serif" font-size="13" font-weight="600">Observability</text>

    <!-- Phoenix Traces -->
    <rect x="40" y="40" width="170" height="36" rx="6" fill="#1e293b" stroke="#64748b" stroke-width="1"/>
    <text x="125" y="55" text-anchor="middle" fill="#c084fc" font-family="system-ui, sans-serif" font-size="11" font-weight="600">Phoenix Traces</text>
    <text x="125" y="68" text-anchor="middle" fill="#94a3b8" font-family="system-ui, sans-serif" font-size="9">every LLM call traced</text>

    <!-- NCMS Dashboard -->
    <rect x="225" y="40" width="170" height="36" rx="6" fill="#1e293b" stroke="#64748b" stroke-width="1"/>
    <text x="310" y="55" text-anchor="middle" fill="#38bdf8" font-family="system-ui, sans-serif" font-size="11" font-weight="600">NCMS Dashboard</text>
    <text x="310" y="68" text-anchor="middle" fill="#94a3b8" font-family="system-ui, sans-serif" font-size="9">real-time SSE events</text>

    <!-- Bus Announcements -->
    <rect x="410" y="40" width="170" height="36" rx="6" fill="#1e293b" stroke="#64748b" stroke-width="1"/>
    <text x="495" y="55" text-anchor="middle" fill="#fbbf24" font-family="system-ui, sans-serif" font-size="11" font-weight="600">Bus Announcements</text>
    <text x="495" y="68" text-anchor="middle" fill="#94a3b8" font-family="system-ui, sans-serif" font-size="9">agent coordination</text>

    <!-- Review Reports -->
    <rect x="595" y="40" width="150" height="36" rx="6" fill="#1e293b" stroke="#64748b" stroke-width="1"/>
    <text x="670" y="55" text-anchor="middle" fill="#e9d5ff" font-family="system-ui, sans-serif" font-size="11" font-weight="600">Review Reports</text>
    <text x="670" y="68" text-anchor="middle" fill="#94a3b8" font-family="system-ui, sans-serif" font-size="9">score + feedback</text>

    <!-- Summary label -->
    <rect x="140" y="90" width="470" height="24" rx="6" fill="#0f1528" stroke="#475569" stroke-width="1"/>
    <text x="375" y="106" text-anchor="middle" fill="#94a3b8" font-family="system-ui, sans-serif" font-size="10" font-weight="600">4 LLM calls + review  |  ~14 minutes  |  Approved at 83% (round 1)</text>
  </g>

  <!-- ===== Expert Dual-Mode Inset ===== -->
  <g transform="translate(0, 800)">
    <rect x="40" y="10" width="720" height="90" rx="8" fill="url(#expertGrad)" stroke="#a78bfa" stroke-width="1" stroke-opacity="0.5"/>
    <text x="56" y="30" fill="#c4b5fd" font-family="system-ui, sans-serif" font-size="11" font-weight="700">Expert Dual-Mode Routing (LangGraph)</text>

    <!-- Question mode -->
    <rect x="56" y="40" width="320" height="22" rx="4" fill="#0f1528" stroke="#475569" stroke-width="0.8"/>
    <text x="66" y="55" fill="#a78bfa" font-family="system-ui, sans-serif" font-size="8" font-weight="700">Question</text>
    <text x="128" y="55" fill="#94a3b8" font-family="system-ui, sans-serif" font-size="8">classify &#x2192; search_memory &#x2192; answer</text>

    <!-- Review mode -->
    <rect x="56" y="68" width="320" height="22" rx="4" fill="#0f1528" stroke="#475569" stroke-width="0.8"/>
    <text x="66" y="83" fill="#c084fc" font-family="system-ui, sans-serif" font-size="8" font-weight="700">Review</text>
    <text x="116" y="83" fill="#94a3b8" font-family="system-ui, sans-serif" font-size="8">classify &#x2192; search_memory &#x2192; SCORE / COVERED / MISSING / CHANGES</text>

    <!-- Visual diagram of routing -->
    <rect x="420" y="38" width="120" height="56" rx="5" fill="#0f1528" stroke="#a78bfa" stroke-width="0.8" stroke-opacity="0.4"/>
    <text x="480" y="53" text-anchor="middle" fill="#c4b5fd" font-family="system-ui, sans-serif" font-size="8" font-weight="600">classify_request</text>
    <text x="480" y="65" text-anchor="middle" fill="#64748b" font-family="system-ui, sans-serif" font-size="7">question | review</text>
    <line x1="480" y1="70" x2="480" y2="78" stroke="#a78bfa" stroke-width="0.8" stroke-opacity="0.4"/>
    <text x="480" y="87" text-anchor="middle" fill="#94a3b8" font-family="system-ui, sans-serif" font-size="7">&#x2193; search_memory &#x2193;</text>

    <!-- Output indicators -->
    <rect x="560" y="40" width="56" height="20" rx="3" fill="#1e293b" stroke="#a78bfa" stroke-width="0.6"/>
    <text x="588" y="54" text-anchor="middle" fill="#c4b5fd" font-family="system-ui, sans-serif" font-size="7" font-weight="600">answer</text>
    <rect x="624" y="40" width="120" height="20" rx="3" fill="#1e293b" stroke="#c084fc" stroke-width="0.6"/>
    <text x="684" y="54" text-anchor="middle" fill="#e9d5ff" font-family="system-ui, sans-serif" font-size="7" font-weight="600">review_document</text>
    <rect x="560" y="66" width="184" height="20" rx="3" fill="#0f1528" stroke="#475569" stroke-width="0.6"/>
    <text x="652" y="80" text-anchor="middle" fill="#64748b" font-family="system-ui, sans-serif" font-size="7">SCORE / COVERED / MISSING / CHANGES</text>
  </g>
</svg>
