<svg xmlns="http://www.w3.org/2000/svg" viewBox="0 0 800 750">
  <defs>
    <linearGradient id="bgGrad" x1="0" y1="0" x2="0" y2="1">
      <stop offset="0%" stop-color="#0a0e1a"/>
      <stop offset="100%" stop-color="#0f1528"/>
    </linearGradient>
    <linearGradient id="poGrad" x1="0" y1="0" x2="1" y2="0">
      <stop offset="0%" stop-color="#22c55e" stop-opacity="0.15"/>
      <stop offset="100%" stop-color="#22c55e" stop-opacity="0.05"/>
    </linearGradient>
    <linearGradient id="builderGrad" x1="0" y1="0" x2="1" y2="0">
      <stop offset="0%" stop-color="#f59e0b" stop-opacity="0.15"/>
      <stop offset="100%" stop-color="#f59e0b" stop-opacity="0.05"/>
    </linearGradient>
    <linearGradient id="archGrad" x1="0" y1="0" x2="1" y2="0">
      <stop offset="0%" stop-color="#3b82f6" stop-opacity="0.15"/>
      <stop offset="100%" stop-color="#3b82f6" stop-opacity="0.05"/>
    </linearGradient>
    <linearGradient id="secGrad" x1="0" y1="0" x2="1" y2="0">
      <stop offset="0%" stop-color="#ef4444" stop-opacity="0.15"/>
      <stop offset="100%" stop-color="#ef4444" stop-opacity="0.05"/>
    </linearGradient>
    <linearGradient id="researchGrad" x1="0" y1="0" x2="1" y2="0">
      <stop offset="0%" stop-color="#10b981" stop-opacity="0.12"/>
      <stop offset="100%" stop-color="#10b981" stop-opacity="0.04"/>
    </linearGradient>
    <linearGradient id="cyanGrad" x1="0" y1="0" x2="1" y2="0">
      <stop offset="0%" stop-color="#06b6d4" stop-opacity="0.2"/>
      <stop offset="100%" stop-color="#06b6d4" stop-opacity="0.08"/>
    </linearGradient>
    <filter id="glow">
      <feGaussianBlur stdDeviation="2" result="blur"/>
      <feMerge><feMergeNode in="blur"/><feMergeNode in="SourceGraphic"/></feMerge>
    </filter>
  </defs>

  <!-- Background -->
  <rect width="800" height="750" fill="url(#bgGrad)"/>

  <!-- ===== PHASE 1: Knowledge Seeding ===== -->
  <g transform="translate(0, 8)">
    <circle cx="50" cy="18" r="14" fill="none" stroke="#64748b" stroke-width="1.5"/>
    <text x="50" y="23" text-anchor="middle" fill="#94a3b8" font-family="system-ui, sans-serif" font-size="13" font-weight="700">1</text>
    <text x="72" y="23" fill="#e2e8f0" font-family="system-ui, sans-serif" font-size="13" font-weight="600">Knowledge Seeding</text>

    <!-- Architect loads -->
    <rect x="30" y="38" width="220" height="46" rx="6" fill="url(#archGrad)" stroke="#3b82f6" stroke-width="1" stroke-opacity="0.4"/>
    <text x="46" y="54" fill="#3b82f6" font-family="system-ui, sans-serif" font-size="11" font-weight="700">Architect</text>
    <text x="46" y="72" fill="#93c5fd" font-family="system-ui, sans-serif" font-size="9">ADRs, CALM specs, quality scenarios</text>

    <!-- Security loads -->
    <rect x="550" y="38" width="220" height="46" rx="6" fill="url(#secGrad)" stroke="#ef4444" stroke-width="1" stroke-opacity="0.4"/>
    <text x="566" y="54" fill="#ef4444" font-family="system-ui, sans-serif" font-size="11" font-weight="700">Security</text>
    <text x="566" y="72" fill="#fca5a5" font-family="system-ui, sans-serif" font-size="9">STRIDE threat model, OWASP controls</text>

    <!-- Arrows into NCMS Hub -->
    <line x1="250" y1="61" x2="305" y2="61" stroke="#3b82f6" stroke-width="1.5" stroke-opacity="0.5"/>
    <polygon points="303,56 313,61 303,66" fill="#3b82f6" fill-opacity="0.6"/>
    <line x1="550" y1="61" x2="495" y2="61" stroke="#ef4444" stroke-width="1.5" stroke-opacity="0.5"/>
    <polygon points="497,56 487,61 497,66" fill="#ef4444" fill-opacity="0.6"/>

    <!-- NCMS Hub -->
    <rect x="313" y="42" width="174" height="38" rx="8" fill="url(#cyanGrad)" stroke="#06b6d4" stroke-width="1.5"/>
    <text x="400" y="57" text-anchor="middle" fill="#22d3ee" font-family="system-ui, sans-serif" font-size="12" font-weight="700">NCMS Hub</text>
    <text x="400" y="72" text-anchor="middle" fill="#67e8f9" font-family="system-ui, sans-serif" font-size="9">BM25 + SPLADE v3</text>
  </g>

  <!-- Connector arrow 1->2 -->
  <line x1="400" y1="96" x2="400" y2="114" stroke="#475569" stroke-width="1.5" stroke-dasharray="4,3"/>
  <polygon points="395,112 400,120 405,112" fill="#475569"/>

  <!-- ===== PHASE 2: Research ===== -->
  <g transform="translate(0, 120)">
    <circle cx="50" cy="18" r="14" fill="none" stroke="#64748b" stroke-width="1.5"/>
    <text x="50" y="23" text-anchor="middle" fill="#94a3b8" font-family="system-ui, sans-serif" font-size="13" font-weight="700">2</text>
    <text x="72" y="23" fill="#e2e8f0" font-family="system-ui, sans-serif" font-size="13" font-weight="600">Research</text>

    <!-- Researcher box -->
    <rect x="30" y="36" width="680" height="68" rx="8" fill="url(#researchGrad)" stroke="#10b981" stroke-width="1" stroke-opacity="0.5"/>
    <text x="46" y="52" fill="#10b981" font-family="system-ui, sans-serif" font-size="11" font-weight="700">Researcher</text>

    <!-- Node: plan_queries -->
    <rect x="50" y="60" width="96" height="28" rx="5" fill="#0f1528" stroke="#34d399" stroke-width="1" stroke-opacity="0.6"/>
    <text x="98" y="78" text-anchor="middle" fill="#6ee7b7" font-family="system-ui, sans-serif" font-size="9" font-weight="600">plan_queries</text>

    <!-- Arrow -->
    <line x1="146" y1="74" x2="168" y2="74" stroke="#34d399" stroke-width="1.2" stroke-opacity="0.5"/>
    <polygon points="166,70 174,74 166,78" fill="#34d399" fill-opacity="0.6"/>

    <!-- Node: parallel_search -->
    <rect x="174" y="56" width="120" height="36" rx="5" fill="#0f1528" stroke="#34d399" stroke-width="1" stroke-opacity="0.6"/>
    <text x="234" y="72" text-anchor="middle" fill="#6ee7b7" font-family="system-ui, sans-serif" font-size="9" font-weight="600">parallel_search</text>
    <text x="234" y="84" text-anchor="middle" fill="#94a3b8" font-family="system-ui, sans-serif" font-size="8">5x Tavily</text>

    <!-- Arrow -->
    <line x1="294" y1="74" x2="316" y2="74" stroke="#34d399" stroke-width="1.2" stroke-opacity="0.5"/>
    <polygon points="314,70 322,74 314,78" fill="#34d399" fill-opacity="0.6"/>

    <!-- Node: synthesize -->
    <rect x="322" y="60" width="86" height="28" rx="5" fill="#0f1528" stroke="#34d399" stroke-width="1" stroke-opacity="0.6"/>
    <text x="365" y="78" text-anchor="middle" fill="#6ee7b7" font-family="system-ui, sans-serif" font-size="9" font-weight="600">synthesize</text>

    <!-- Arrow -->
    <line x1="408" y1="74" x2="430" y2="74" stroke="#34d399" stroke-width="1.2" stroke-opacity="0.5"/>
    <polygon points="428,70 436,74 428,78" fill="#34d399" fill-opacity="0.6"/>

    <!-- Node: publish -->
    <rect x="436" y="60" width="72" height="28" rx="5" fill="#0f1528" stroke="#34d399" stroke-width="1" stroke-opacity="0.6"/>
    <text x="472" y="78" text-anchor="middle" fill="#6ee7b7" font-family="system-ui, sans-serif" font-size="9" font-weight="600">publish</text>

    <!-- Arrow -->
    <line x1="508" y1="74" x2="530" y2="74" stroke="#34d399" stroke-width="1.2" stroke-opacity="0.5"/>
    <polygon points="528,70 536,74 528,78" fill="#34d399" fill-opacity="0.6"/>

    <!-- Node: trigger -->
    <rect x="536" y="60" width="72" height="28" rx="5" fill="#0f1528" stroke="#34d399" stroke-width="1" stroke-opacity="0.6"/>
    <text x="572" y="78" text-anchor="middle" fill="#6ee7b7" font-family="system-ui, sans-serif" font-size="9" font-weight="600">trigger</text>

    <!-- Output artifact -->
    <rect x="626" y="60" width="72" height="28" rx="5" fill="#1e293b" stroke="#64748b" stroke-width="1"/>
    <text x="662" y="78" text-anchor="middle" fill="#94a3b8" font-family="system-ui, sans-serif" font-size="9" font-weight="600">9KB Report</text>
  </g>

  <!-- Auto-trigger connector 2->3 -->
  <line x1="400" y1="226" x2="400" y2="250" stroke="#22c55e" stroke-width="1.5" stroke-dasharray="4,3"/>
  <polygon points="395,248 400,256 405,248" fill="#22c55e"/>
  <text x="430" y="242" fill="#22c55e" font-family="system-ui, sans-serif" font-size="9" font-weight="600">&#x1F517; auto-trigger</text>

  <!-- ===== PHASE 3: PRD Creation ===== -->
  <g transform="translate(0, 256)">
    <circle cx="50" cy="18" r="14" fill="none" stroke="#64748b" stroke-width="1.5"/>
    <text x="50" y="23" text-anchor="middle" fill="#94a3b8" font-family="system-ui, sans-serif" font-size="13" font-weight="700">3</text>
    <text x="72" y="23" fill="#e2e8f0" font-family="system-ui, sans-serif" font-size="13" font-weight="600">PRD Creation</text>

    <!-- Product Owner box -->
    <rect x="30" y="36" width="680" height="96" rx="8" fill="url(#poGrad)" stroke="#22c55e" stroke-width="1" stroke-opacity="0.5"/>
    <text x="46" y="52" fill="#22c55e" font-family="system-ui, sans-serif" font-size="11" font-weight="700">Product Owner</text>

    <!-- Node: read_document -->
    <rect x="50" y="60" width="100" height="28" rx="5" fill="#0f1528" stroke="#4ade80" stroke-width="1" stroke-opacity="0.6"/>
    <text x="100" y="78" text-anchor="middle" fill="#86efac" font-family="system-ui, sans-serif" font-size="9" font-weight="600">read_document</text>

    <!-- Arrow -->
    <line x1="150" y1="74" x2="172" y2="74" stroke="#4ade80" stroke-width="1.2" stroke-opacity="0.5"/>
    <polygon points="170,70 178,74 170,78" fill="#4ade80" fill-opacity="0.6"/>

    <!-- Node: ask_experts -->
    <rect x="178" y="56" width="104" height="36" rx="5" fill="#0f1528" stroke="#4ade80" stroke-width="1" stroke-opacity="0.6"/>
    <text x="230" y="72" text-anchor="middle" fill="#86efac" font-family="system-ui, sans-serif" font-size="9" font-weight="600">ask_experts</text>

    <!-- Parallel arrows to Architect + Security labels -->
    <line x1="210" y1="92" x2="196" y2="104" stroke="#3b82f6" stroke-width="1" stroke-opacity="0.5"/>
    <text x="164" y="115" fill="#93c5fd" font-family="system-ui, sans-serif" font-size="8">Architect</text>
    <line x1="250" y1="92" x2="264" y2="104" stroke="#ef4444" stroke-width="1" stroke-opacity="0.5"/>
    <text x="256" y="115" fill="#fca5a5" font-family="system-ui, sans-serif" font-size="8">Security</text>

    <!-- Arrow -->
    <line x1="282" y1="74" x2="304" y2="74" stroke="#4ade80" stroke-width="1.2" stroke-opacity="0.5"/>
    <polygon points="302,70 310,74 302,78" fill="#4ade80" fill-opacity="0.6"/>

    <!-- Node: synthesize_prd -->
    <rect x="310" y="60" width="100" height="28" rx="5" fill="#0f1528" stroke="#4ade80" stroke-width="1" stroke-opacity="0.6"/>
    <text x="360" y="78" text-anchor="middle" fill="#86efac" font-family="system-ui, sans-serif" font-size="9" font-weight="600">synthesize_prd</text>

    <!-- Arrow -->
    <line x1="410" y1="74" x2="432" y2="74" stroke="#4ade80" stroke-width="1.2" stroke-opacity="0.5"/>
    <polygon points="430,70 438,74 430,78" fill="#4ade80" fill-opacity="0.6"/>

    <!-- Node: publish -->
    <rect x="438" y="60" width="72" height="28" rx="5" fill="#0f1528" stroke="#4ade80" stroke-width="1" stroke-opacity="0.6"/>
    <text x="474" y="78" text-anchor="middle" fill="#86efac" font-family="system-ui, sans-serif" font-size="9" font-weight="600">publish</text>

    <!-- Arrow -->
    <line x1="510" y1="74" x2="532" y2="74" stroke="#4ade80" stroke-width="1.2" stroke-opacity="0.5"/>
    <polygon points="530,70 538,74 530,78" fill="#4ade80" fill-opacity="0.6"/>

    <!-- Node: trigger -->
    <rect x="538" y="60" width="72" height="28" rx="5" fill="#0f1528" stroke="#4ade80" stroke-width="1" stroke-opacity="0.6"/>
    <text x="574" y="78" text-anchor="middle" fill="#86efac" font-family="system-ui, sans-serif" font-size="9" font-weight="600">trigger</text>

    <!-- Output artifact -->
    <rect x="626" y="56" width="72" height="36" rx="5" fill="#1e293b" stroke="#64748b" stroke-width="1"/>
    <text x="662" y="71" text-anchor="middle" fill="#94a3b8" font-family="system-ui, sans-serif" font-size="9" font-weight="600">15KB PRD</text>

    <!-- Tags row -->
    <rect x="50" y="100" width="38" height="14" rx="3" fill="#1e293b"/>
    <text x="69" y="110" text-anchor="middle" fill="#94a3b8" font-family="system-ui, sans-serif" font-size="7">ADR</text>
    <rect x="92" y="100" width="50" height="14" rx="3" fill="#1e293b"/>
    <text x="117" y="110" text-anchor="middle" fill="#94a3b8" font-family="system-ui, sans-serif" font-size="7">STRIDE</text>
    <rect x="146" y="100" width="44" height="14" rx="3" fill="#1e293b"/>
    <text x="168" y="110" text-anchor="middle" fill="#94a3b8" font-family="system-ui, sans-serif" font-size="7">CALM</text>
    <rect x="194" y="100" width="38" height="14" rx="3" fill="#1e293b"/>
    <text x="213" y="110" text-anchor="middle" fill="#94a3b8" font-family="system-ui, sans-serif" font-size="7">NIST</text>
    <rect x="236" y="100" width="42" height="14" rx="3" fill="#1e293b"/>
    <text x="257" y="110" text-anchor="middle" fill="#94a3b8" font-family="system-ui, sans-serif" font-size="7">PKCE</text>
  </g>

  <!-- Auto-trigger connector 3->4 -->
  <line x1="400" y1="390" x2="400" y2="414" stroke="#22c55e" stroke-width="1.5" stroke-dasharray="4,3"/>
  <polygon points="395,412 400,420 405,412" fill="#22c55e"/>
  <text x="430" y="406" fill="#22c55e" font-family="system-ui, sans-serif" font-size="9" font-weight="600">&#x1F517; auto-trigger</text>

  <!-- ===== PHASE 4: Implementation Design ===== -->
  <g transform="translate(0, 420)">
    <circle cx="50" cy="18" r="14" fill="none" stroke="#64748b" stroke-width="1.5"/>
    <text x="50" y="23" text-anchor="middle" fill="#94a3b8" font-family="system-ui, sans-serif" font-size="13" font-weight="700">4</text>
    <text x="72" y="23" fill="#e2e8f0" font-family="system-ui, sans-serif" font-size="13" font-weight="600">Implementation Design</text>

    <!-- Builder box -->
    <rect x="30" y="36" width="680" height="96" rx="8" fill="url(#builderGrad)" stroke="#f59e0b" stroke-width="1" stroke-opacity="0.5"/>
    <text x="46" y="52" fill="#f59e0b" font-family="system-ui, sans-serif" font-size="11" font-weight="700">Builder</text>

    <!-- Node: read_document -->
    <rect x="50" y="60" width="100" height="28" rx="5" fill="#0f1528" stroke="#fbbf24" stroke-width="1" stroke-opacity="0.6"/>
    <text x="100" y="78" text-anchor="middle" fill="#fde68a" font-family="system-ui, sans-serif" font-size="9" font-weight="600">read_document</text>

    <!-- Arrow -->
    <line x1="150" y1="74" x2="172" y2="74" stroke="#fbbf24" stroke-width="1.2" stroke-opacity="0.5"/>
    <polygon points="170,70 178,74 170,78" fill="#fbbf24" fill-opacity="0.6"/>

    <!-- Node: ask_experts -->
    <rect x="178" y="56" width="104" height="36" rx="5" fill="#0f1528" stroke="#fbbf24" stroke-width="1" stroke-opacity="0.6"/>
    <text x="230" y="72" text-anchor="middle" fill="#fde68a" font-family="system-ui, sans-serif" font-size="9" font-weight="600">ask_experts</text>

    <!-- Parallel arrows to Architect + Security labels -->
    <line x1="210" y1="92" x2="196" y2="104" stroke="#3b82f6" stroke-width="1" stroke-opacity="0.5"/>
    <text x="164" y="115" fill="#93c5fd" font-family="system-ui, sans-serif" font-size="8">Architect</text>
    <line x1="250" y1="92" x2="264" y2="104" stroke="#ef4444" stroke-width="1" stroke-opacity="0.5"/>
    <text x="256" y="115" fill="#fca5a5" font-family="system-ui, sans-serif" font-size="8">Security</text>

    <!-- Arrow -->
    <line x1="282" y1="74" x2="304" y2="74" stroke="#fbbf24" stroke-width="1.2" stroke-opacity="0.5"/>
    <polygon points="302,70 310,74 302,78" fill="#fbbf24" fill-opacity="0.6"/>

    <!-- Node: synthesize_design -->
    <rect x="310" y="60" width="110" height="28" rx="5" fill="#0f1528" stroke="#fbbf24" stroke-width="1" stroke-opacity="0.6"/>
    <text x="365" y="78" text-anchor="middle" fill="#fde68a" font-family="system-ui, sans-serif" font-size="9" font-weight="600">synthesize_design</text>

    <!-- Arrow -->
    <line x1="420" y1="74" x2="442" y2="74" stroke="#fbbf24" stroke-width="1.2" stroke-opacity="0.5"/>
    <polygon points="440,70 448,74 440,78" fill="#fbbf24" fill-opacity="0.6"/>

    <!-- Node: publish -->
    <rect x="448" y="60" width="72" height="28" rx="5" fill="#0f1528" stroke="#fbbf24" stroke-width="1" stroke-opacity="0.6"/>
    <text x="484" y="78" text-anchor="middle" fill="#fde68a" font-family="system-ui, sans-serif" font-size="9" font-weight="600">publish</text>

    <!-- Arrow -->
    <line x1="520" y1="74" x2="542" y2="74" stroke="#fbbf24" stroke-width="1.2" stroke-opacity="0.5"/>
    <polygon points="540,70 548,74 540,78" fill="#fbbf24" fill-opacity="0.6"/>

    <!-- Node: verify -->
    <rect x="548" y="60" width="62" height="28" rx="5" fill="#0f1528" stroke="#fbbf24" stroke-width="1" stroke-opacity="0.6"/>
    <text x="579" y="78" text-anchor="middle" fill="#fde68a" font-family="system-ui, sans-serif" font-size="9" font-weight="600">verify</text>

    <!-- Output artifact -->
    <rect x="626" y="52" width="72" height="44" rx="5" fill="#1e293b" stroke="#64748b" stroke-width="1"/>
    <text x="662" y="68" text-anchor="middle" fill="#94a3b8" font-family="system-ui, sans-serif" font-size="9" font-weight="600">18KB TS</text>
    <text x="662" y="80" text-anchor="middle" fill="#94a3b8" font-family="system-ui, sans-serif" font-size="9" font-weight="600">Design</text>

    <!-- Tags row -->
    <rect x="50" y="100" width="34" height="14" rx="3" fill="#1e293b"/>
    <text x="67" y="110" text-anchor="middle" fill="#94a3b8" font-family="system-ui, sans-serif" font-size="7">JWT</text>
    <rect x="88" y="100" width="62" height="14" rx="3" fill="#1e293b"/>
    <text x="119" y="110" text-anchor="middle" fill="#94a3b8" font-family="system-ui, sans-serif" font-size="7">interfaces</text>
    <rect x="154" y="100" width="66" height="14" rx="3" fill="#1e293b"/>
    <text x="187" y="110" text-anchor="middle" fill="#94a3b8" font-family="system-ui, sans-serif" font-size="7">middleware</text>
  </g>

  <!-- Connector arrow 4->5 -->
  <line x1="400" y1="554" x2="400" y2="578" stroke="#475569" stroke-width="1.5" stroke-dasharray="4,3"/>
  <polygon points="395,576 400,584 405,576" fill="#475569"/>

  <!-- ===== PHASE 5: Observability ===== -->
  <g transform="translate(0, 584)">
    <circle cx="50" cy="18" r="14" fill="none" stroke="#64748b" stroke-width="1.5"/>
    <text x="50" y="23" text-anchor="middle" fill="#94a3b8" font-family="system-ui, sans-serif" font-size="13" font-weight="700">5</text>
    <text x="72" y="23" fill="#e2e8f0" font-family="system-ui, sans-serif" font-size="13" font-weight="600">Observability</text>

    <!-- Phoenix Traces -->
    <rect x="60" y="40" width="190" height="36" rx="6" fill="#1e293b" stroke="#64748b" stroke-width="1"/>
    <text x="155" y="55" text-anchor="middle" fill="#c084fc" font-family="system-ui, sans-serif" font-size="11" font-weight="600">Phoenix Traces</text>
    <text x="155" y="68" text-anchor="middle" fill="#94a3b8" font-family="system-ui, sans-serif" font-size="9">every LLM call traced</text>

    <!-- NCMS Dashboard -->
    <rect x="280" y="40" width="190" height="36" rx="6" fill="#1e293b" stroke="#64748b" stroke-width="1"/>
    <text x="375" y="55" text-anchor="middle" fill="#38bdf8" font-family="system-ui, sans-serif" font-size="11" font-weight="600">NCMS Dashboard</text>
    <text x="375" y="68" text-anchor="middle" fill="#94a3b8" font-family="system-ui, sans-serif" font-size="9">real-time SSE events</text>

    <!-- Bus Announcements -->
    <rect x="500" y="40" width="200" height="36" rx="6" fill="#1e293b" stroke="#64748b" stroke-width="1"/>
    <text x="600" y="55" text-anchor="middle" fill="#fbbf24" font-family="system-ui, sans-serif" font-size="11" font-weight="600">Bus Announcements</text>
    <text x="600" y="68" text-anchor="middle" fill="#94a3b8" font-family="system-ui, sans-serif" font-size="9">agent coordination events</text>

    <!-- Summary label -->
    <rect x="200" y="90" width="350" height="24" rx="6" fill="#0f1528" stroke="#475569" stroke-width="1"/>
    <text x="375" y="106" text-anchor="middle" fill="#94a3b8" font-family="system-ui, sans-serif" font-size="10" font-weight="600">4 LLM calls  |  10 minutes  |  One message</text>
  </g>
</svg>