<svg xmlns="http://www.w3.org/2000/svg" viewBox="0 0 960 1010" font-family="'Segoe UI', system-ui, -apple-system, sans-serif">
  <defs>
    <linearGradient id="oracleGrad" x1="0" y1="0" x2="1" y2="0">
      <stop offset="0%" stop-color="#a855f7"/>
      <stop offset="100%" stop-color="#6366f1"/>
    </linearGradient>
    <linearGradient id="htmgGrad" x1="0" y1="0" x2="1" y2="0">
      <stop offset="0%" stop-color="#f59e0b"/>
      <stop offset="100%" stop-color="#f97316"/>
    </linearGradient>
    <linearGradient id="sleepGrad" x1="0" y1="0" x2="1" y2="0">
      <stop offset="0%" stop-color="#06b6d4"/>
      <stop offset="100%" stop-color="#0ea5e9"/>
    </linearGradient>
    <linearGradient id="searchGrad" x1="0" y1="0" x2="1" y2="0">
      <stop offset="0%" stop-color="#10b981"/>
      <stop offset="100%" stop-color="#059669"/>
    </linearGradient>
    <linearGradient id="ingestGrad" x1="0" y1="0" x2="1" y2="0">
      <stop offset="0%" stop-color="#f97316"/>
      <stop offset="100%" stop-color="#ef4444"/>
    </linearGradient>
    <linearGradient id="consolGrad" x1="0" y1="0" x2="1" y2="0">
      <stop offset="0%" stop-color="#8b5cf6"/>
      <stop offset="100%" stop-color="#a855f7"/>
    </linearGradient>
    <filter id="shadow" x="-4%" y="-4%" width="108%" height="116%">
      <feDropShadow dx="0" dy="2" stdDeviation="4" flood-color="#000" flood-opacity="0.15"/>
    </filter>
    <marker id="arrowWhite" viewBox="0 0 10 10" refX="9" refY="5" markerWidth="6" markerHeight="6" orient="auto">
      <path d="M 0 0 L 10 5 L 0 10 z" fill="#94a3b8"/>
    </marker>
    <marker id="arrowCyan" viewBox="0 0 10 10" refX="9" refY="5" markerWidth="7" markerHeight="7" orient="auto">
      <path d="M 0 0 L 10 5 L 0 10 z" fill="#22d3ee"/>
    </marker>
    <marker id="arrowPink" viewBox="0 0 10 10" refX="9" refY="5" markerWidth="7" markerHeight="7" orient="auto">
      <path d="M 0 0 L 10 5 L 0 10 z" fill="#f472b6"/>
    </marker>
    <marker id="arrowOrange" viewBox="0 0 10 10" refX="9" refY="5" markerWidth="6" markerHeight="6" orient="auto">
      <path d="M 0 0 L 10 5 L 0 10 z" fill="#fb923c"/>
    </marker>
    <marker id="arrowPurple" viewBox="0 0 10 10" refX="9" refY="5" markerWidth="6" markerHeight="6" orient="auto">
      <path d="M 0 0 L 10 5 L 0 10 z" fill="#a78bfa"/>
    </marker>
  </defs>

  <!-- Background -->
  <rect width="960" height="1010" rx="12" fill="#0f172a"/>

  <!-- Title -->
  <text x="480" y="38" text-anchor="middle" fill="#e2e8f0" font-size="24" font-weight="700" letter-spacing="1.5">PROJECT ORACLE</text>
  <text x="480" y="58" text-anchor="middle" fill="#a78bfa" font-size="13" font-weight="500">NCMS-Next: Complete Architecture — Ingest · Consolidation · Retrieval</text>
  <text x="480" y="76" text-anchor="middle" fill="#64748b" font-size="11">Self-improving retrieval with zero LLM cost at query time</text>

  <!-- ═══════════ LEFT SIDE: HTMG Memory Hierarchy ═══════════ -->

  <!-- HTMG Header -->
  <g filter="url(#shadow)">
    <rect x="40" y="100" width="420" height="36" rx="10" fill="url(#htmgGrad)"/>
    <text x="250" y="124" text-anchor="middle" fill="white" font-size="15" font-weight="700">HTMG Memory Hierarchy</text>
  </g>

  <!-- Level 4: Abstract Memory -->
  <g filter="url(#shadow)">
    <rect x="40" y="148" width="420" height="68" rx="10" fill="#1e293b" stroke="#a855f7" stroke-width="1.5"/>
    <rect x="50" y="155" width="10" height="54" rx="5" fill="#a855f7" opacity="0.6"/>
    <text x="80" y="172" fill="#c4b5fd" font-size="13" font-weight="700">L4  Abstract Memory</text>
    <text x="80" y="190" fill="#94a3b8" font-size="10">Recurring patterns, strategic insights, state trajectories</text>
    <text x="80" y="204" fill="#94a3b8" font-size="10">LLM-synthesized from episode clusters (offline consolidation)</text>
    <rect x="340" y="158" width="110" height="20" rx="10" fill="#a855f7" opacity="0.2" stroke="#a855f7" stroke-width="0.5"/>
    <text x="395" y="172" text-anchor="middle" fill="#c4b5fd" font-size="9">Phase 5</text>
  </g>

  <!-- Level 3: Episode -->
  <g filter="url(#shadow)">
    <rect x="40" y="226" width="420" height="68" rx="10" fill="#1e293b" stroke="#6366f1" stroke-width="1.5"/>
    <rect x="50" y="233" width="10" height="54" rx="5" fill="#6366f1" opacity="0.6"/>
    <text x="80" y="250" fill="#a5b4fc" font-size="13" font-weight="700">L3  Episode</text>
    <text x="80" y="268" fill="#94a3b8" font-size="10">Bounded event arcs: incidents, workflows, change sequences</text>
    <text x="80" y="282" fill="#94a3b8" font-size="10">Temporal co-occurrence clustering (replaces keyword bridges)</text>
    <rect x="340" y="236" width="110" height="20" rx="10" fill="#6366f1" opacity="0.2" stroke="#6366f1" stroke-width="0.5"/>
    <text x="395" y="250" text-anchor="middle" fill="#a5b4fc" font-size="9">Phase 3</text>
  </g>

  <!-- Level 2: Entity State -->
  <g filter="url(#shadow)">
    <rect x="40" y="304" width="420" height="68" rx="10" fill="#1e293b" stroke="#0ea5e9" stroke-width="1.5"/>
    <rect x="50" y="311" width="10" height="54" rx="5" fill="#0ea5e9" opacity="0.6"/>
    <text x="80" y="328" fill="#7dd3fc" font-size="13" font-weight="700">L2  Entity State</text>
    <text x="80" y="346" fill="#94a3b8" font-size="10">Bitemporal assertions: valid-time + system-time versioning</text>
    <text x="80" y="360" fill="#94a3b8" font-size="10">"What was X as of last week?" — supersession + reconciliation</text>
    <rect x="340" y="314" width="110" height="20" rx="10" fill="#0ea5e9" opacity="0.2" stroke="#0ea5e9" stroke-width="0.5"/>
    <text x="395" y="328" text-anchor="middle" fill="#7dd3fc" font-size="9">Phase 2</text>
  </g>

  <!-- Level 1: Atomic Memory -->
  <g filter="url(#shadow)">
    <rect x="40" y="382" width="420" height="68" rx="10" fill="#1e293b" stroke="#10b981" stroke-width="1.5"/>
    <rect x="50" y="389" width="10" height="54" rx="5" fill="#10b981" opacity="0.6"/>
    <text x="80" y="406" fill="#6ee7b7" font-size="13" font-weight="700">L1  Atomic Memory</text>
    <text x="80" y="424" fill="#94a3b8" font-size="10">Individual facts, observations, claims, decisions</text>
    <text x="80" y="438" fill="#94a3b8" font-size="10">BM25 + SPLADE + GLiNER NER + admission scoring</text>
    <rect x="340" y="392" width="110" height="20" rx="10" fill="#10b981" opacity="0.2" stroke="#10b981" stroke-width="0.5"/>
    <text x="395" y="406" text-anchor="middle" fill="#6ee7b7" font-size="9">Phase 1</text>
  </g>

  <!-- Hierarchy arrows -->
  <path d="M 250 216 L 250 226" stroke="#94a3b8" stroke-width="1.5" fill="none" marker-end="url(#arrowWhite)"/>
  <path d="M 250 294 L 250 304" stroke="#94a3b8" stroke-width="1.5" fill="none" marker-end="url(#arrowWhite)"/>
  <path d="M 250 372 L 250 382" stroke="#94a3b8" stroke-width="1.5" fill="none" marker-end="url(#arrowWhite)"/>

  <!-- ═══════════ RIGHT SIDE: Nightly Consolidation ═══════════ -->

  <!-- Nightly Header -->
  <g filter="url(#shadow)">
    <rect x="500" y="100" width="420" height="36" rx="10" fill="url(#sleepGrad)"/>
    <text x="710" y="124" text-anchor="middle" fill="white" font-size="15" font-weight="700">Nightly Dream Cycle</text>
  </g>

  <!-- Moon icon -->
  <g transform="translate(520, 148)">
    <circle cx="30" cy="22" r="16" fill="#0ea5e9" opacity="0.15"/>
    <circle cx="37" cy="18" r="12" fill="#0f172a"/>
    <circle cx="56" cy="12" r="2" fill="#fbbf24" opacity="0.6"/>
    <circle cx="70" cy="24" r="1.5" fill="#fbbf24" opacity="0.4"/>
    <circle cx="52" cy="30" r="1" fill="#fbbf24" opacity="0.5"/>
  </g>

  <!-- Oracle sub-header -->
  <rect x="600" y="148" width="310" height="22" rx="6" fill="#22d3ee" opacity="0.08" stroke="#22d3ee" stroke-width="0.5"/>
  <text x="755" y="163" text-anchor="middle" fill="#67e8f9" font-size="11" font-weight="600">Project Oracle — No LLM (Phase 8)</text>

  <!-- Sleep Pass 1: Rehearsal -->
  <g filter="url(#shadow)">
    <rect x="500" y="178" width="420" height="72" rx="10" fill="#1e293b" stroke="#22d3ee" stroke-width="1.5"/>
    <rect x="510" y="186" width="6" height="56" rx="3" fill="#22d3ee" opacity="0.5"/>
    <text x="610" y="200" fill="#67e8f9" font-size="12" font-weight="700">Dream Rehearsal</text>
    <text x="610" y="215" fill="#94a3b8" font-size="10">Replay important-but-decaying memories</text>
    <rect x="530" y="223" width="370" height="22" rx="5" fill="#0f172a" stroke="#334155" stroke-width="0.5"/>
    <text x="545" y="238" fill="#67e8f9" font-size="9" font-family="monospace">inject synthetic access → B_i = ln(Σ t_j^(-d)) ↑</text>
  </g>

  <!-- Sleep Pass 2: Association Learning -->
  <g filter="url(#shadow)">
    <rect x="500" y="260" width="420" height="72" rx="10" fill="#1e293b" stroke="#a78bfa" stroke-width="1.5"/>
    <rect x="510" y="268" width="6" height="56" rx="3" fill="#a78bfa" opacity="0.5"/>
    <text x="610" y="282" fill="#c4b5fd" font-size="12" font-weight="700">Association Learning</text>
    <text x="610" y="297" fill="#94a3b8" font-size="10">Learn entity-pair weights from co-access patterns</text>
    <rect x="530" y="305" width="370" height="22" rx="5" fill="#0f172a" stroke="#334155" stroke-width="0.5"/>
    <text x="545" y="320" fill="#c4b5fd" font-size="9" font-family="monospace">PMI(e1,e2) → association_strengths → S_i = Σ W_k · S_ki ↑</text>
  </g>

  <!-- Sleep Pass 3: Importance Drift -->
  <g filter="url(#shadow)">
    <rect x="500" y="342" width="420" height="72" rx="10" fill="#1e293b" stroke="#f472b6" stroke-width="1.5"/>
    <rect x="510" y="350" width="6" height="56" rx="3" fill="#f472b6" opacity="0.5"/>
    <text x="610" y="364" fill="#f9a8d4" font-size="12" font-weight="700">Importance Drift</text>
    <text x="610" y="379" fill="#94a3b8" font-size="10">Adjust importance from 30-day access trends</text>
    <rect x="530" y="387" width="370" height="22" rx="5" fill="#0f172a" stroke="#334155" stroke-width="0.5"/>
    <text x="545" y="402" fill="#f9a8d4" font-size="9" font-family="monospace">trend = rate(7d) / rate(prev_23d) → memory.importance *= factor</text>
  </g>

  <!-- LLM Consolidation sub-header -->
  <rect x="500" y="424" width="420" height="22" rx="6" fill="#8b5cf6" opacity="0.08" stroke="#8b5cf6" stroke-width="0.5"/>
  <text x="710" y="439" text-anchor="middle" fill="#c4b5fd" font-size="11" font-weight="600">Knowledge Synthesis — LLM (existing)</text>

  <!-- Knowledge Consolidation -->
  <g filter="url(#shadow)">
    <rect x="500" y="454" width="200" height="68" rx="10" fill="#1e293b" stroke="#8b5cf6" stroke-width="1.5"/>
    <rect x="510" y="462" width="6" height="52" rx="3" fill="#8b5cf6" opacity="0.5"/>
    <text x="605" y="478" text-anchor="middle" fill="#c4b5fd" font-size="12" font-weight="700">Consolidation</text>
    <text x="605" y="493" text-anchor="middle" fill="#94a3b8" font-size="9">Entity cluster → LLM</text>
    <text x="605" y="506" text-anchor="middle" fill="#94a3b8" font-size="9">→ insight memories</text>
  </g>

  <!-- Decay Pass -->
  <g filter="url(#shadow)">
    <rect x="718" y="454" width="202" height="68" rx="10" fill="#1e293b" stroke="#64748b" stroke-width="1"/>
    <rect x="728" y="462" width="6" height="52" rx="3" fill="#64748b" opacity="0.5"/>
    <text x="824" y="478" text-anchor="middle" fill="#94a3b8" font-size="12" font-weight="700">Decay Pass</text>
    <text x="824" y="493" text-anchor="middle" fill="#94a3b8" font-size="9">Recompute activation</text>
    <text x="824" y="506" text-anchor="middle" fill="#94a3b8" font-size="9">Flag low-B_i memories</text>
  </g>

  <!-- ═══════════ INGEST TIME LANE ═══════════ -->

  <!-- Divider line 1 -->
  <line x1="40" y1="548" x2="920" y2="548" stroke="#334155" stroke-width="1" stroke-dasharray="6,4"/>
  <rect x="370" y="538" width="220" height="20" rx="10" fill="#0f172a"/>
  <text x="480" y="552" text-anchor="middle" fill="#fb923c" font-size="11" font-weight="600">INGEST TIME (per memory stored)</text>

  <!-- Ingest pipeline -->
  <g filter="url(#shadow)">
    <!-- GLiNER NER -->
    <rect x="40" y="570" width="195" height="60" rx="8" fill="#1e293b" stroke="#10b981" stroke-width="1"/>
    <text x="137" y="593" text-anchor="middle" fill="#6ee7b7" font-size="12" font-weight="600">GLiNER NER</text>
    <text x="137" y="609" text-anchor="middle" fill="#94a3b8" font-size="9">Zero-shot entity extraction</text>
    <text x="137" y="621" text-anchor="middle" fill="#94a3b8" font-size="9">→ knowledge graph nodes</text>
  </g>

  <path d="M 235 600 L 260 600" stroke="#94a3b8" stroke-width="1.5" fill="none" marker-end="url(#arrowWhite)"/>

  <g filter="url(#shadow)">
    <!-- Contradiction Detection -->
    <rect x="265" y="570" width="225" height="60" rx="8" fill="#1e293b" stroke="#f97316" stroke-width="1.5"/>
    <text x="377" y="593" text-anchor="middle" fill="#fdba74" font-size="12" font-weight="700">Contradiction Detection</text>
    <text x="377" y="609" text-anchor="middle" fill="#94a3b8" font-size="9">LLM compares new vs existing memories</text>
    <text x="377" y="621" text-anchor="middle" fill="#94a3b8" font-size="9">→ bidirectional annotation (opt-in)</text>
  </g>

  <path d="M 490 600 L 515 600" stroke="#94a3b8" stroke-width="1.5" fill="none" marker-end="url(#arrowWhite)"/>

  <g filter="url(#shadow)">
    <!-- SPLADE Indexing -->
    <rect x="520" y="570" width="195" height="60" rx="8" fill="#1e293b" stroke="#0ea5e9" stroke-width="1"/>
    <text x="617" y="593" text-anchor="middle" fill="#7dd3fc" font-size="12" font-weight="600">SPLADE Index</text>
    <text x="617" y="609" text-anchor="middle" fill="#94a3b8" font-size="9">Sparse neural embedding</text>
    <text x="617" y="621" text-anchor="middle" fill="#94a3b8" font-size="9">→ learned term expansion</text>
  </g>

  <path d="M 715 600 L 740 600" stroke="#94a3b8" stroke-width="1.5" fill="none" marker-end="url(#arrowWhite)"/>

  <g filter="url(#shadow)">
    <!-- BM25 Indexing -->
    <rect x="745" y="570" width="175" height="60" rx="8" fill="#1e293b" stroke="#10b981" stroke-width="1"/>
    <text x="832" y="593" text-anchor="middle" fill="#6ee7b7" font-size="12" font-weight="600">BM25 Index</text>
    <text x="832" y="609" text-anchor="middle" fill="#94a3b8" font-size="9">Tantivy full-text index</text>
    <text x="832" y="621" text-anchor="middle" fill="#94a3b8" font-size="9">→ lexical retrieval</text>
  </g>

  <!-- ═══════════ QUERY TIME LANE ═══════════ -->

  <!-- Divider line 2 -->
  <line x1="40" y1="655" x2="920" y2="655" stroke="#334155" stroke-width="1" stroke-dasharray="6,4"/>
  <rect x="380" y="645" width="200" height="20" rx="10" fill="#0f172a"/>
  <text x="480" y="659" text-anchor="middle" fill="#10b981" font-size="11" font-weight="600">QUERY TIME (zero LLM cost)</text>

  <!-- Search pipeline banner -->
  <g filter="url(#shadow)">
    <rect x="40" y="675" width="880" height="42" rx="10" fill="url(#searchGrad)" opacity="0.9"/>
    <text x="480" y="695" text-anchor="middle" fill="white" font-size="14" font-weight="700">Multi-Signal Retrieval Pipeline</text>
    <text x="480" y="710" text-anchor="middle" fill="white" font-size="10" opacity="0.8">BM25 (Tantivy) + SPLADE (fastembed) + Graph Expansion (NetworkX) + ACT-R (Oracle-tuned)</text>
  </g>

  <!-- Pipeline components -->
  <g filter="url(#shadow)">
    <rect x="40" y="730" width="190" height="58" rx="8" fill="#1e293b" stroke="#10b981" stroke-width="1"/>
    <text x="135" y="752" text-anchor="middle" fill="#6ee7b7" font-size="12" font-weight="600">BM25 + SPLADE</text>
    <text x="135" y="768" text-anchor="middle" fill="#94a3b8" font-size="9">Lexical + learned expansion</text>
    <text x="135" y="780" text-anchor="middle" fill="#94a3b8" font-size="9">nDCG@10: 0.697 baseline</text>
  </g>

  <path d="M 230 759 L 260 759" stroke="#94a3b8" stroke-width="1.5" fill="none" marker-end="url(#arrowWhite)"/>

  <g filter="url(#shadow)">
    <rect x="265" y="730" width="190" height="58" rx="8" fill="#1e293b" stroke="#6366f1" stroke-width="1"/>
    <text x="360" y="752" text-anchor="middle" fill="#a5b4fc" font-size="12" font-weight="600">Graph Expansion</text>
    <text x="360" y="768" text-anchor="middle" fill="#94a3b8" font-size="9">Entity traversal (GLiNER NER)</text>
    <text x="360" y="780" text-anchor="middle" fill="#94a3b8" font-size="9">+0.4% nDCG lift</text>
  </g>

  <path d="M 455 759 L 485 759" stroke="#94a3b8" stroke-width="1.5" fill="none" marker-end="url(#arrowWhite)"/>

  <g filter="url(#shadow)">
    <rect x="490" y="730" width="220" height="58" rx="8" fill="#1e293b" stroke="#ec4899" stroke-width="1.5"/>
    <text x="600" y="752" text-anchor="middle" fill="#f9a8d4" font-size="12" font-weight="700">ACT-R + Oracle Weights</text>
    <text x="600" y="768" text-anchor="middle" fill="#94a3b8" font-size="9">Learned associations + rehearsed base-level</text>
    <text x="600" y="780" text-anchor="middle" fill="#f472b6" font-size="9" font-weight="600">Compounding improvement nightly</text>
  </g>

  <path d="M 710 759 L 740 759" stroke="#94a3b8" stroke-width="1.5" fill="none" marker-end="url(#arrowWhite)"/>

  <g filter="url(#shadow)">
    <rect x="745" y="730" width="175" height="58" rx="8" fill="#1e293b" stroke="#f59e0b" stroke-width="1"/>
    <text x="832" y="752" text-anchor="middle" fill="#fbbf24" font-size="12" font-weight="600">Ranked Results</text>
    <text x="832" y="768" text-anchor="middle" fill="#94a3b8" font-size="9">Intent-aware filtering</text>
    <text x="832" y="780" text-anchor="middle" fill="#94a3b8" font-size="9">Zero LLM calls at query time</text>
  </g>

  <!-- ═══════════ FEEDBACK ARROWS ═══════════ -->

  <!-- Access log feeds nightly cycle (right edge) -->
  <path d="M 920 710 L 940 710 L 940 180 L 920 180" stroke="#22d3ee" stroke-width="2" stroke-dasharray="6,3" fill="none" marker-end="url(#arrowCyan)" opacity="0.5"/>
  <text x="947" y="445" fill="#22d3ee" font-size="9" font-weight="500" transform="rotate(90 947 445)" opacity="0.6">access_log feeds dream cycle</text>

  <!-- Oracle teaches ACT-R -->
  <path d="M 600 414 L 600 440 L 600 500 L 480 500 L 480 565 L 480 730" stroke="#f472b6" stroke-width="2" stroke-dasharray="6,3" fill="none" marker-end="url(#arrowPink)" opacity="0.4"/>
  <text x="490" y="518" fill="#f472b6" font-size="9" font-weight="500" opacity="0.6">Oracle teaches ACT-R</text>

  <!-- Consolidation creates memories (feeds back to L4) -->
  <path d="M 500 478 L 480 478 L 480 180 L 460 180" stroke="#a78bfa" stroke-width="1.5" stroke-dasharray="5,3" fill="none" marker-end="url(#arrowPurple)" opacity="0.4"/>
  <text x="482" y="330" fill="#c4b5fd" font-size="9" font-weight="500" transform="rotate(-90 482 330)" opacity="0.5">insights → L4</text>

  <!-- ═══════════ BOTTOM: Eliminated vs Replaced ═══════════ -->

  <g filter="url(#shadow)">
    <rect x="40" y="810" width="420" height="52" rx="10" fill="#1e293b" stroke="#ef4444" stroke-width="1" stroke-dasharray="4,2" opacity="0.7"/>
    <text x="250" y="832" text-anchor="middle" fill="#fca5a5" font-size="12" font-weight="600">Eliminated by Project Oracle</text>
    <line x1="60" y1="846" x2="90" y2="846" stroke="#ef4444" stroke-width="2"/>
    <text x="96" y="850" fill="#94a3b8" font-size="10">LLM Keyword Bridges (nDCG -95%)</text>
    <line x1="310" y1="846" x2="340" y2="846" stroke="#ef4444" stroke-width="2"/>
    <text x="346" y="850" fill="#94a3b8" font-size="10">LLM-as-Judge reranking</text>
  </g>

  <g filter="url(#shadow)">
    <rect x="500" y="810" width="420" height="52" rx="10" fill="#1e293b" stroke="#22c55e" stroke-width="1" opacity="0.7"/>
    <text x="710" y="832" text-anchor="middle" fill="#86efac" font-size="12" font-weight="600">Replaced With</text>
    <circle cx="525" cy="847" r="4" fill="#22d3ee"/>
    <text x="535" y="851" fill="#94a3b8" font-size="10">PMI weights</text>
    <circle cx="640" cy="847" r="4" fill="#a78bfa"/>
    <text x="650" y="851" fill="#94a3b8" font-size="10">Dream rehearsal</text>
    <circle cx="770" cy="847" r="4" fill="#6366f1"/>
    <text x="780" y="851" fill="#94a3b8" font-size="10">Temporal episodes</text>
  </g>

  <!-- ═══════════ RETAINED LLM FEATURES ═══════════ -->

  <g filter="url(#shadow)">
    <rect x="40" y="874" width="880" height="52" rx="10" fill="#1e293b" stroke="#8b5cf6" stroke-width="1" opacity="0.6"/>
    <text x="480" y="896" text-anchor="middle" fill="#c4b5fd" font-size="12" font-weight="600">Retained LLM Features (offline / ingest only — not on query path)</text>
    <circle cx="100" cy="913" r="4" fill="#f97316"/>
    <text x="110" y="917" fill="#94a3b8" font-size="10">Contradiction detection (ingest)</text>
    <circle cx="340" cy="913" r="4" fill="#8b5cf6"/>
    <text x="350" y="917" fill="#94a3b8" font-size="10">Knowledge consolidation (nightly)</text>
    <circle cx="580" cy="913" r="4" fill="#a855f7"/>
    <text x="590" y="917" fill="#94a3b8" font-size="10">Hierarchical abstraction (nightly)</text>
    <circle cx="820" cy="913" r="4" fill="#64748b"/>
    <text x="830" y="917" fill="#94a3b8" font-size="9">All opt-in, graceful degradation</text>
  </g>

  <!-- ═══════════ Legend ═══════════ -->
  <g transform="translate(40, 945)">
    <rect x="0" y="0" width="880" height="42" rx="8" fill="#1e293b" opacity="0.5"/>

    <rect x="20" y="9" width="12" height="12" rx="3" fill="#fb923c" opacity="0.5"/>
    <text x="38" y="20" fill="#94a3b8" font-size="10">Ingest-time</text>

    <rect x="120" y="9" width="12" height="12" rx="3" fill="#22d3ee" opacity="0.5"/>
    <text x="138" y="20" fill="#94a3b8" font-size="10">Nightly (no LLM)</text>

    <rect x="240" y="9" width="12" height="12" rx="3" fill="#8b5cf6" opacity="0.5"/>
    <text x="258" y="20" fill="#94a3b8" font-size="10">Nightly (LLM)</text>

    <rect x="345" y="9" width="12" height="12" rx="3" fill="#10b981" opacity="0.5"/>
    <text x="363" y="20" fill="#94a3b8" font-size="10">Query-time</text>

    <rect x="440" y="9" width="12" height="12" rx="3" fill="#f472b6" opacity="0.5"/>
    <text x="458" y="20" fill="#94a3b8" font-size="10">Learned</text>

    <rect x="520" y="9" width="12" height="12" rx="3" fill="#ef4444" opacity="0.3"/>
    <text x="538" y="20" fill="#94a3b8" font-size="10">Eliminated</text>

    <text x="20" y="36" fill="#64748b" font-size="10">9 phases  |  130+ tasks  |  58-79 days  |  Three lifecycle lanes: ingest · consolidation · retrieval</text>
  </g>

  <text x="920" y="998" text-anchor="end" fill="#475569" font-size="9">ncms-next / project oracle</text>
</svg>
