<svg xmlns="http://www.w3.org/2000/svg" viewBox="0 0 900 400" font-family="'Segoe UI', system-ui, -apple-system, sans-serif">
  <defs>
    <linearGradient id="qGrad" x1="0" y1="0" x2="0" y2="1">
      <stop offset="0%" stop-color="#8b5cf6"/>
      <stop offset="100%" stop-color="#7c3aed"/>
    </linearGradient>
    <linearGradient id="t1Grad" x1="0" y1="0" x2="0" y2="1">
      <stop offset="0%" stop-color="#0ea5e9"/>
      <stop offset="100%" stop-color="#0284c7"/>
    </linearGradient>
    <linearGradient id="t15Grad" x1="0" y1="0" x2="0" y2="1">
      <stop offset="0%" stop-color="#ec4899"/>
      <stop offset="100%" stop-color="#db2777"/>
    </linearGradient>
    <linearGradient id="t2Grad" x1="0" y1="0" x2="0" y2="1">
      <stop offset="0%" stop-color="#f59e0b"/>
      <stop offset="100%" stop-color="#d97706"/>
    </linearGradient>
    <linearGradient id="t3Grad" x1="0" y1="0" x2="0" y2="1">
      <stop offset="0%" stop-color="#10b981"/>
      <stop offset="100%" stop-color="#059669"/>
    </linearGradient>
    <linearGradient id="rGrad" x1="0" y1="0" x2="0" y2="1">
      <stop offset="0%" stop-color="#ef4444"/>
      <stop offset="100%" stop-color="#dc2626"/>
    </linearGradient>
    <filter id="ds" x="-4%" y="-4%" width="108%" height="116%">
      <feDropShadow dx="0" dy="2" stdDeviation="3" flood-color="#000" flood-opacity="0.15"/>
    </filter>
    <marker id="arrow" viewBox="0 0 10 10" refX="9" refY="5" markerWidth="7" markerHeight="7" orient="auto">
      <path d="M 0 0 L 10 5 L 0 10 z" fill="#64748b"/>
    </marker>
  </defs>

  <!-- Background -->
  <rect width="900" height="400" rx="12" fill="#0f172a"/>

  <!-- Title -->
  <text x="450" y="32" text-anchor="middle" fill="#e2e8f0" font-size="18" font-weight="700">Retrieval Pipeline</text>
  <text x="450" y="50" text-anchor="middle" fill="#94a3b8" font-size="11">Vector-free cognitive retrieval with graph expansion, entity traversal, and ACT-R scoring</text>

  <!-- Query Input -->
  <g filter="url(#ds)">
    <rect x="15" y="75" width="100" height="180" rx="10" fill="#1e293b" stroke="#8b5cf6" stroke-width="2"/>
    <rect x="15" y="75" width="100" height="30" rx="10" fill="url(#qGrad)"/>
    <rect x="15" y="95" width="100" height="10" fill="url(#qGrad)"/>
    <text x="65" y="95" text-anchor="middle" fill="white" font-size="11" font-weight="600">Query</text>
    <text x="65" y="125" text-anchor="middle" fill="#c4b5fd" font-size="22">"</text>
    <text x="65" y="148" text-anchor="middle" fill="#94a3b8" font-size="9">connection</text>
    <text x="65" y="162" text-anchor="middle" fill="#94a3b8" font-size="9">pooling config</text>
    <text x="65" y="185" text-anchor="middle" fill="#c4b5fd" font-size="22">"</text>
    <text x="65" y="238" text-anchor="middle" fill="#64748b" font-size="8">domain: db</text>
  </g>

  <!-- Arrow Q -> T1 -->
  <line x1="115" y1="165" x2="135" y2="165" stroke="#64748b" stroke-width="2" marker-end="url(#arrow)"/>

  <!-- Tier 1: BM25 -->
  <g filter="url(#ds)">
    <rect x="140" y="75" width="155" height="180" rx="10" fill="#1e293b" stroke="#0ea5e9" stroke-width="2"/>
    <rect x="140" y="75" width="155" height="30" rx="10" fill="url(#t1Grad)"/>
    <rect x="140" y="95" width="155" height="10" fill="url(#t1Grad)"/>
    <text x="217" y="95" text-anchor="middle" fill="white" font-size="11" font-weight="600">Tier 1: BM25</text>
    <text x="217" y="122" text-anchor="middle" fill="#7dd3fc" font-size="10" font-weight="500">Tantivy (Rust)</text>
    <text x="217" y="142" text-anchor="middle" fill="#94a3b8" font-size="9">Lexical matching</text>
    <text x="217" y="157" text-anchor="middle" fill="#94a3b8" font-size="9">English stemming</text>
    <text x="217" y="172" text-anchor="middle" fill="#94a3b8" font-size="9">Domain filtering</text>
    <text x="217" y="198" text-anchor="middle" fill="#38bdf8" font-size="10" font-weight="600">50 candidates</text>
    <rect x="165" y="212" width="105" height="4" rx="2" fill="#0ea5e9" opacity="0.5"/>
    <text x="217" y="238" text-anchor="middle" fill="#64748b" font-size="8">~1ms</text>
  </g>

  <!-- Arrow T1 -> T1.5 -->
  <line x1="295" y1="165" x2="315" y2="165" stroke="#64748b" stroke-width="2" marker-end="url(#arrow)"/>

  <!-- Tier 1.5: Graph Expansion -->
  <g filter="url(#ds)">
    <rect x="320" y="75" width="155" height="180" rx="10" fill="#1e293b" stroke="#ec4899" stroke-width="2"/>
    <rect x="320" y="75" width="155" height="30" rx="10" fill="url(#t15Grad)"/>
    <rect x="320" y="95" width="155" height="10" fill="url(#t15Grad)"/>
    <text x="397" y="95" text-anchor="middle" fill="white" font-size="10" font-weight="600">Tier 1.5: Graph</text>
    <text x="397" y="122" text-anchor="middle" fill="#f9a8d4" font-size="10" font-weight="500">NetworkX DiGraph</text>
    <text x="397" y="142" text-anchor="middle" fill="#94a3b8" font-size="9">Entity traversal</text>
    <text x="397" y="157" text-anchor="middle" fill="#94a3b8" font-size="9">Cross-memory discovery</text>
    <text x="397" y="172" text-anchor="middle" fill="#94a3b8" font-size="9">Keyword bridges</text>
    <text x="397" y="198" text-anchor="middle" fill="#f472b6" font-size="10" font-weight="600">+novel candidates</text>
    <!-- Mini graph visualization -->
    <circle cx="360" cy="225" r="4" fill="#ec4899" opacity="0.7"/>
    <circle cx="380" cy="218" r="4" fill="#ec4899" opacity="0.7"/>
    <circle cx="397" cy="230" r="3" fill="#f9a8d4" opacity="0.5"/>
    <circle cx="415" cy="220" r="4" fill="#ec4899" opacity="0.7"/>
    <circle cx="435" cy="228" r="4" fill="#ec4899" opacity="0.7"/>
    <line x1="360" y1="225" x2="380" y2="218" stroke="#ec4899" stroke-width="0.8" opacity="0.5"/>
    <line x1="380" y1="218" x2="397" y2="230" stroke="#ec4899" stroke-width="0.8" opacity="0.5"/>
    <line x1="397" y1="230" x2="415" y2="220" stroke="#ec4899" stroke-width="0.8" opacity="0.5"/>
    <line x1="415" y1="220" x2="435" y2="228" stroke="#ec4899" stroke-width="0.8" opacity="0.5"/>
    <line x1="360" y1="225" x2="415" y2="220" stroke="#ec4899" stroke-width="0.8" opacity="0.3"/>
    <line x1="380" y1="218" x2="435" y2="228" stroke="#ec4899" stroke-width="0.8" opacity="0.3"/>
  </g>

  <!-- Arrow T1.5 -> T2 -->
  <line x1="475" y1="165" x2="495" y2="165" stroke="#64748b" stroke-width="2" marker-end="url(#arrow)"/>

  <!-- Tier 2: ACT-R -->
  <g filter="url(#ds)">
    <rect x="500" y="75" width="155" height="180" rx="10" fill="#1e293b" stroke="#f59e0b" stroke-width="2"/>
    <rect x="500" y="75" width="155" height="30" rx="10" fill="url(#t2Grad)"/>
    <rect x="500" y="95" width="155" height="10" fill="url(#t2Grad)"/>
    <text x="577" y="95" text-anchor="middle" fill="white" font-size="11" font-weight="600">Tier 2: ACT-R</text>
    <text x="577" y="122" text-anchor="middle" fill="#fcd34d" font-size="10" font-weight="500">Cognitive Scoring</text>
    <text x="577" y="142" text-anchor="middle" fill="#94a3b8" font-size="9">Base level (recency)</text>
    <text x="577" y="157" text-anchor="middle" fill="#94a3b8" font-size="9">Frequency decay</text>
    <text x="577" y="172" text-anchor="middle" fill="#94a3b8" font-size="9">Spreading activation</text>
    <text x="577" y="198" text-anchor="middle" fill="#fbbf24" font-size="9" font-weight="500">A = ln(&#8721;t&#8315;&#x1D48;) + S + &#949;</text>
    <text x="577" y="238" text-anchor="middle" fill="#64748b" font-size="8">Ranked results</text>
  </g>

  <!-- Arrow T2 -> T3 -->
  <line x1="655" y1="165" x2="675" y2="165" stroke="#64748b" stroke-width="2" marker-end="url(#arrow)"/>

  <!-- Tier 3: LLM Judge -->
  <g filter="url(#ds)">
    <rect x="680" y="75" width="130" height="180" rx="10" fill="#1e293b" stroke="#10b981" stroke-width="1.5" stroke-dasharray="6,3"/>
    <rect x="680" y="75" width="130" height="30" rx="10" fill="url(#t3Grad)" opacity="0.8"/>
    <rect x="680" y="95" width="130" height="10" fill="url(#t3Grad)" opacity="0.8"/>
    <text x="745" y="95" text-anchor="middle" fill="white" font-size="10" font-weight="600">Tier 3: Judge</text>
    <text x="745" y="122" text-anchor="middle" fill="#6ee7b7" font-size="9" font-weight="500">LLM Reranking</text>
    <text x="745" y="142" text-anchor="middle" fill="#94a3b8" font-size="9">Relevance scoring</text>
    <text x="745" y="157" text-anchor="middle" fill="#94a3b8" font-size="9">Score blending</text>
    <text x="745" y="177" text-anchor="middle" fill="#64748b" font-size="8" font-style="italic">optional</text>

    <!-- Result bars -->
    <text x="700" y="201" fill="#94a3b8" font-size="7">1</text>
    <rect x="710" y="195" width="80" height="7" rx="3" fill="#22c55e" opacity="0.8"/>
    <text x="700" y="215" fill="#94a3b8" font-size="7">2</text>
    <rect x="710" y="209" width="62" height="7" rx="3" fill="#22c55e" opacity="0.6"/>
    <text x="700" y="229" fill="#94a3b8" font-size="7">3</text>
    <rect x="710" y="223" width="45" height="7" rx="3" fill="#f59e0b" opacity="0.5"/>
    <text x="700" y="243" fill="#94a3b8" font-size="7">4</text>
    <rect x="710" y="237" width="30" height="7" rx="3" fill="#94a3b8" opacity="0.3"/>
  </g>

  <!-- Formula bar at bottom -->
  <rect x="15" y="280" width="870" height="50" rx="8" fill="#1e293b" stroke="#334155" stroke-width="1"/>
  <text x="35" y="301" fill="#e2e8f0" font-size="11" font-weight="500">Scoring:</text>
  <text x="100" y="301" fill="#7dd3fc" font-size="11" font-family="'Fira Code', monospace">combined = bm25_score * 0.6  +  activation * 0.4</text>
  <text x="35" y="319" fill="#94a3b8" font-size="9">Graph-discovered memories enter with bm25=0.0, ranked purely by cognitive activation (recency + frequency + context)</text>

  <!-- Phase labels at bottom -->
  <rect x="15" y="345" width="870" height="42" rx="8" fill="#1e293b" stroke="#334155" stroke-width="0.5"/>
  <text x="35" y="363" fill="#64748b" font-size="9" font-weight="500">Phase status:</text>
  <rect x="140" y="355" width="8" height="8" rx="2" fill="#22c55e"/>
  <text x="153" y="363" fill="#94a3b8" font-size="9">BM25 (core)</text>
  <rect x="240" y="355" width="8" height="8" rx="2" fill="#22c55e"/>
  <text x="253" y="363" fill="#94a3b8" font-size="9">Graph Expansion (Phase 1)</text>
  <rect x="420" y="355" width="8" height="8" rx="2" fill="#22c55e"/>
  <text x="433" y="363" fill="#94a3b8" font-size="9">ACT-R (core)</text>
  <rect x="530" y="355" width="8" height="8" rx="2" fill="#f59e0b"/>
  <text x="543" y="363" fill="#94a3b8" font-size="9">LLM Judge (opt-in)</text>
  <rect x="140" y="372" width="8" height="8" rx="2" fill="#22c55e"/>
  <text x="153" y="380" fill="#94a3b8" font-size="9">GLiNER NER (Phase 2, opt-in)</text>
  <rect x="340" y="372" width="8" height="8" rx="2" fill="#f59e0b"/>
  <text x="353" y="380" fill="#94a3b8" font-size="9">Keyword Bridges (Phase 3, opt-in)</text>
  <rect x="560" y="372" width="8" height="8" rx="2" fill="#475569"/>
  <text x="573" y="380" fill="#94a3b8" font-size="9">Consolidation (Phase 4, planned)</text>
</svg>
