<svg xmlns="http://www.w3.org/2000/svg" viewBox="0 0 900 340" font-family="'Segoe UI', system-ui, -apple-system, sans-serif">
  <defs>
    <linearGradient id="qGrad" x1="0" y1="0" x2="0" y2="1">
      <stop offset="0%" stop-color="#8b5cf6"/>
      <stop offset="100%" stop-color="#7c3aed"/>
    </linearGradient>
    <linearGradient id="t1Grad" x1="0" y1="0" x2="0" y2="1">
      <stop offset="0%" stop-color="#0ea5e9"/>
      <stop offset="100%" stop-color="#0284c7"/>
    </linearGradient>
    <linearGradient id="t2Grad" x1="0" y1="0" x2="0" y2="1">
      <stop offset="0%" stop-color="#f59e0b"/>
      <stop offset="100%" stop-color="#d97706"/>
    </linearGradient>
    <linearGradient id="t3Grad" x1="0" y1="0" x2="0" y2="1">
      <stop offset="0%" stop-color="#10b981"/>
      <stop offset="100%" stop-color="#059669"/>
    </linearGradient>
    <linearGradient id="rGrad" x1="0" y1="0" x2="0" y2="1">
      <stop offset="0%" stop-color="#ef4444"/>
      <stop offset="100%" stop-color="#dc2626"/>
    </linearGradient>
    <filter id="ds" x="-4%" y="-4%" width="108%" height="116%">
      <feDropShadow dx="0" dy="2" stdDeviation="3" flood-color="#000" flood-opacity="0.15"/>
    </filter>
    <marker id="arrow" viewBox="0 0 10 10" refX="9" refY="5" markerWidth="7" markerHeight="7" orient="auto">
      <path d="M 0 0 L 10 5 L 0 10 z" fill="#64748b"/>
    </marker>
  </defs>

  <!-- Background -->
  <rect width="900" height="340" rx="12" fill="#0f172a"/>

  <!-- Title -->
  <text x="450" y="32" text-anchor="middle" fill="#e2e8f0" font-size="18" font-weight="700">Three-Tier Retrieval Pipeline</text>
  <text x="450" y="50" text-anchor="middle" fill="#94a3b8" font-size="11">Vector-free cognitive retrieval with BM25, knowledge graph, and ACT-R scoring</text>

  <!-- Query Input -->
  <g filter="url(#ds)">
    <rect x="30" y="80" width="130" height="170" rx="10" fill="#1e293b" stroke="#8b5cf6" stroke-width="2"/>
    <rect x="30" y="80" width="130" height="32" rx="10" fill="url(#qGrad)"/>
    <rect x="30" y="102" width="130" height="10" fill="url(#qGrad)"/>
    <text x="95" y="101" text-anchor="middle" fill="white" font-size="12" font-weight="600">Query</text>
    <text x="95" y="130" text-anchor="middle" fill="#c4b5fd" font-size="28">"</text>
    <text x="95" y="155" text-anchor="middle" fill="#94a3b8" font-size="10">users endpoint</text>
    <text x="95" y="170" text-anchor="middle" fill="#94a3b8" font-size="10">schema columns</text>
    <text x="95" y="195" text-anchor="middle" fill="#c4b5fd" font-size="28">"</text>
    <text x="95" y="232" text-anchor="middle" fill="#64748b" font-size="9">domain: db</text>
  </g>

  <!-- Arrow Q -> T1 -->
  <line x1="160" y1="165" x2="190" y2="165" stroke="#64748b" stroke-width="2" marker-end="url(#arrow)"/>

  <!-- Tier 1: BM25 -->
  <g filter="url(#ds)">
    <rect x="195" y="80" width="170" height="170" rx="10" fill="#1e293b" stroke="#0ea5e9" stroke-width="2"/>
    <rect x="195" y="80" width="170" height="32" rx="10" fill="url(#t1Grad)"/>
    <rect x="195" y="102" width="170" height="10" fill="url(#t1Grad)"/>
    <text x="280" y="101" text-anchor="middle" fill="white" font-size="12" font-weight="600">Tier 1: BM25</text>
    <text x="280" y="128" text-anchor="middle" fill="#7dd3fc" font-size="10" font-weight="500">Tantivy (Rust)</text>
    <text x="280" y="150" text-anchor="middle" fill="#94a3b8" font-size="9">Lexical matching</text>
    <text x="280" y="165" text-anchor="middle" fill="#94a3b8" font-size="9">English stemming</text>
    <text x="280" y="180" text-anchor="middle" fill="#94a3b8" font-size="9">Domain filtering</text>
    <text x="280" y="200" text-anchor="middle" fill="#38bdf8" font-size="11" font-weight="600">50 candidates</text>
    <rect x="220" y="215" width="120" height="4" rx="2" fill="#0ea5e9" opacity="0.3"/>
    <rect x="220" y="215" width="120" height="4" rx="2" fill="#0ea5e9" opacity="0.6"/>
    <text x="280" y="235" text-anchor="middle" fill="#64748b" font-size="9">~1ms</text>
  </g>

  <!-- Arrow T1 -> T2 -->
  <line x1="365" y1="165" x2="395" y2="165" stroke="#64748b" stroke-width="2" marker-end="url(#arrow)"/>

  <!-- Tier 2: Knowledge Graph -->
  <g filter="url(#ds)">
    <rect x="400" y="80" width="170" height="170" rx="10" fill="#1e293b" stroke="#f59e0b" stroke-width="2"/>
    <rect x="400" y="80" width="170" height="32" rx="10" fill="url(#t2Grad)"/>
    <rect x="400" y="102" width="170" height="10" fill="url(#t2Grad)"/>
    <text x="485" y="101" text-anchor="middle" fill="white" font-size="12" font-weight="600">Tier 2: Graph</text>
    <text x="485" y="128" text-anchor="middle" fill="#fcd34d" font-size="10" font-weight="500">NetworkX DiGraph</text>
    <text x="485" y="150" text-anchor="middle" fill="#94a3b8" font-size="9">Entity resolution</text>
    <text x="485" y="165" text-anchor="middle" fill="#94a3b8" font-size="9">Relationship traversal</text>
    <text x="485" y="180" text-anchor="middle" fill="#94a3b8" font-size="9">Spreading activation</text>
    <text x="485" y="200" text-anchor="middle" fill="#fbbf24" font-size="11" font-weight="600">+graph boost</text>
    <!-- Mini graph visualization -->
    <circle cx="450" cy="228" r="4" fill="#f59e0b" opacity="0.6"/>
    <circle cx="470" cy="222" r="4" fill="#f59e0b" opacity="0.6"/>
    <circle cx="500" cy="230" r="4" fill="#f59e0b" opacity="0.6"/>
    <circle cx="520" cy="220" r="4" fill="#f59e0b" opacity="0.6"/>
    <line x1="450" y1="228" x2="470" y2="222" stroke="#f59e0b" stroke-width="0.8" opacity="0.4"/>
    <line x1="470" y1="222" x2="500" y2="230" stroke="#f59e0b" stroke-width="0.8" opacity="0.4"/>
    <line x1="500" y1="230" x2="520" y2="220" stroke="#f59e0b" stroke-width="0.8" opacity="0.4"/>
    <line x1="450" y1="228" x2="500" y2="230" stroke="#f59e0b" stroke-width="0.8" opacity="0.4"/>
  </g>

  <!-- Arrow T2 -> T3 -->
  <line x1="570" y1="165" x2="600" y2="165" stroke="#64748b" stroke-width="2" marker-end="url(#arrow)"/>

  <!-- Tier 3: ACT-R -->
  <g filter="url(#ds)">
    <rect x="605" y="80" width="170" height="170" rx="10" fill="#1e293b" stroke="#10b981" stroke-width="2"/>
    <rect x="605" y="80" width="170" height="32" rx="10" fill="url(#t3Grad)"/>
    <rect x="605" y="102" width="170" height="10" fill="url(#t3Grad)"/>
    <text x="690" y="101" text-anchor="middle" fill="white" font-size="12" font-weight="600">Tier 3: ACT-R</text>
    <text x="690" y="128" text-anchor="middle" fill="#6ee7b7" font-size="10" font-weight="500">Cognitive Scoring</text>
    <text x="690" y="150" text-anchor="middle" fill="#94a3b8" font-size="9">Base level (recency)</text>
    <text x="690" y="165" text-anchor="middle" fill="#94a3b8" font-size="9">Frequency decay</text>
    <text x="690" y="180" text-anchor="middle" fill="#94a3b8" font-size="9">Context matching</text>
    <text x="690" y="200" text-anchor="middle" fill="#34d399" font-size="10" font-weight="500">A = ln(&#8721;t&#8315;&#x1D48;) + S + &#949;</text>
    <text x="690" y="235" text-anchor="middle" fill="#64748b" font-size="9">Ranked results</text>
  </g>

  <!-- Arrow T3 -> Results -->
  <line x1="775" y1="165" x2="805" y2="165" stroke="#64748b" stroke-width="2" marker-end="url(#arrow)"/>

  <!-- Results -->
  <g filter="url(#ds)">
    <rect x="810" y="80" width="75" height="170" rx="10" fill="#1e293b" stroke="#ef4444" stroke-width="2"/>
    <rect x="810" y="80" width="75" height="32" rx="10" fill="url(#rGrad)"/>
    <rect x="810" y="102" width="75" height="10" fill="url(#rGrad)"/>
    <text x="847" y="101" text-anchor="middle" fill="white" font-size="11" font-weight="600">Results</text>

    <!-- Result bars -->
    <text x="818" y="131" text-anchor="end" fill="#94a3b8" font-size="7">1</text>
    <rect x="822" y="125" width="50" height="8" rx="4" fill="#22c55e" opacity="0.8"/>
    <text x="818" y="146" text-anchor="end" fill="#94a3b8" font-size="7">2</text>
    <rect x="822" y="140" width="40" height="8" rx="4" fill="#22c55e" opacity="0.6"/>
    <text x="818" y="161" text-anchor="end" fill="#94a3b8" font-size="7">3</text>
    <rect x="822" y="155" width="32" height="8" rx="4" fill="#f59e0b" opacity="0.6"/>
    <text x="818" y="176" text-anchor="end" fill="#94a3b8" font-size="7">4</text>
    <rect x="822" y="170" width="25" height="8" rx="4" fill="#f59e0b" opacity="0.4"/>
    <text x="818" y="191" text-anchor="end" fill="#94a3b8" font-size="7">5</text>
    <rect x="822" y="185" width="18" height="8" rx="4" fill="#94a3b8" opacity="0.3"/>

    <text x="847" y="220" text-anchor="middle" fill="#64748b" font-size="9">Scored</text>
    <text x="847" y="232" text-anchor="middle" fill="#64748b" font-size="9">&#38; ranked</text>
  </g>

  <!-- Formula bar at bottom -->
  <rect x="30" y="275" width="840" height="50" rx="8" fill="#1e293b" stroke="#334155" stroke-width="1"/>
  <text x="50" y="296" fill="#e2e8f0" font-size="11" font-weight="500">Scoring Formula:</text>
  <text x="180" y="296" fill="#7dd3fc" font-size="11" font-family="'Fira Code', monospace">total = bm25_score * 0.6  +  activation * 0.4</text>
  <text x="50" y="314" fill="#94a3b8" font-size="10">where</text>
  <text x="95" y="314" fill="#6ee7b7" font-size="10" font-family="'Fira Code', monospace">activation = base_level(access_times) + spreading(entities, context) + noise(&#963;)</text>
</svg>
